<?xml version="1.0" ?><!DOCTYPE svg  PUBLIC '-//W3C//DTD SVG 1.1//EN'  'http://www.w3.org/Graphics/SVG/1.1/DTD/svg11.dtd'><svg enable_background="new 0 0 800 691" height="691px" style="stroke-linejoin: round; stroke:#000; fill:#f6f3f0;" version="1.1" viewBox="0 0 800 691" width="800px" xmlns="http://www.w3.org/2000/svg" xmlns:xlink="http://www.w3.org/1999/xlink"><defs><style type="text/css"><![CDATA[path { fill-rule: evenodd; }
#context path { fill: #eee; stroke: #bbb; } ]]></style></defs><metadata><views><view h="691.244964227" padding="0" w="800"><proj id="laea" lat0="-18.0" lon0="-45.0"/><bbox h="124.55" w="144.36" x="927.82" y="938.31"/><llbbox lat0="-23.0" lat1="-13.0" lon0="-51.0" lon1="-39.0"/></view></views></metadata><g id="regiao"><path d="M151.786384,509.961135L151.682308,504.946656L150.956040,500.925590L152.713555,496.454240L154.978114,491.575754L160.897681,490.494917L165.006126,491.682175L169.612073,489.512744L175.000227,489.616476L179.472140,488.258670L183.591141,488.379075L188.681432,488.343154L193.611588,488.522300L191.313884,485.145814L195.912025,485.063734L199.514837,488.639951L204.469162,488.963260L208.223079,484.514740L212.000521,487.007041L215.887956,483.760349L216.464227,478.910853L222.690167,478.347348L227.482423,478.566569L230.642663,482.403640L234.171950,478.900400L239.087844,477.863089L240.192414,476.949798L237.839090,473.425406L236.572703,467.845070L237.774598,463.769583L233.912199,459.357139L232.443749,455.132763L231.579985,450.269931L227.165138,449.657951L223.026005,447.048918L220.589312,441.020768L219.796559,436.122326L219.599286,432.019541L219.235221,427.114453L217.156837,421.757592L215.921034,417.507590L218.650016,414.502483L223.476851,414.487582L227.614115,413.318299L225.974369,407.650209L226.104180,403.087553L224.062078,399.373449L217.843223,399.689081L213.456104,397.237722L214.202558,391.451818L216.855896,386.721294L219.035510,383.363437L219.425920,377.851702L215.769075,374.478151L214.448333,373.472092L210.449934,375.168088L206.900831,373.171896L202.525886,371.470303L198.135694,372.185363L194.974720,368.494400L190.728251,366.736398L185.177045,368.164886L179.434454,368.747868L174.535667,369.457694L169.636545,367.275984L164.467098,366.058265L160.361132,367.680085L155.679379,368.148294L151.651127,367.577897L147.970328,365.671217L141.878167,367.446613L138.105000,369.944373L134.586295,371.877614L130.198293,372.979670L126.719802,376.548372L124.937921,380.253988L121.506418,383.298208L117.570640,386.880734L113.203194,386.261705L109.935197,383.212947L109.004236,378.636917L105.646797,381.847598L99.555891,383.073737L95.519236,385.919569L91.246064,387.255532L87.149488,388.962023L82.717531,388.028950L78.133490,387.615270L73.929020,387.753302L71.479972,391.790355L66.004127,391.429532L60.470469,392.509030L56.368731,394.191827L54.041155,398.334728L51.468094,402.683980L48.912742,406.449581L46.289302,409.727476L44.763649,415.308488L43.146868,421.429763L39.819791,424.544102L34.522411,424.497439L30.368820,428.154397L28.092082,433.260026L24.875539,435.803526L22.646115,442.509182L24.200862,446.944011L17.770471,447.853540L18.480839,452.922776L15.546983,455.764026L13.587861,460.080530L11.978992,465.261835L13.143808,470.993066L13.576253,475.533925L13.678557,481.592482L14.799826,486.086867L15.293720,490.181673L18.682251,486.261687L21.684552,483.453390L26.731332,481.117078L31.919975,479.023901L36.815723,477.292749L40.074206,473.699481L42.773282,470.708383L46.776994,469.371407L52.047399,469.574160L56.312514,473.790450L63.237904,474.416118L68.354777,474.338621L73.880544,474.742185L77.858224,477.327549L82.520061,477.093761L88.477001,478.472802L93.012193,476.845952L97.537067,477.193797L102.521306,477.111407L107.302778,475.577408L111.633523,478.141420L115.435183,480.229727L120.446812,480.411014L124.179762,478.536004L127.399894,481.132030L123.726566,485.361835L124.317882,491.019033L125.487184,494.865322L127.153988,498.944884L130.825444,501.892293L135.207065,500.413760L137.951850,495.403672L139.354285,491.358048L143.555890,491.765624L146.191270,498.719541L146.090871,505.185477L148.562554,509.471284L150.439820,510.795342Z " data-cd-regiao="10"/><path d="M265.702424,498.012545L264.804527,492.647380L268.785716,491.528630L272.786349,492.008579L277.743877,490.987181L281.052951,488.282373L282.926409,483.272552L287.451717,480.207596L292.766977,481.463113L296.150700,478.983621L295.427917,474.407617L298.141219,471.445070L301.702396,468.685862L306.411291,470.407666L310.384949,469.525138L315.582428,469.392925L316.447284,464.815957L321.238392,464.304471L326.453627,464.806684L328.515857,459.605201L328.004684,455.235867L332.009621,454.698796L336.507161,453.810620L340.694821,448.191855L342.254521,443.788252L342.726242,443.599374L341.902336,441.574595L341.991694,439.708546L342.937889,437.628409L344.236439,433.307925L345.110322,431.997871L347.128071,428.129103L347.505589,424.058000L349.416854,420.493257L351.563436,414.957265L354.030273,411.764133L353.780729,410.016056L354.833970,408.694364L355.203773,404.541863L357.039899,399.964176L358.811756,395.515258L354.608760,393.431705L356.768464,389.284157L358.960406,384.425602L360.151558,380.526927L358.933355,376.694727L358.228463,374.353390L353.203462,376.086161L349.907800,373.359275L347.877739,376.982804L346.328734,381.584015L341.594637,380.836680L337.444662,377.802599L332.879746,378.002344L328.656430,377.991891L326.314574,376.536836L323.379154,377.418265L319.467962,376.196289L315.302411,379.688570L311.705420,377.627288L307.763244,376.829170L303.393855,373.890046L299.131576,372.082750L297.490729,370.370772L295.733283,369.289764L293.595214,368.982079L288.183824,366.524132L287.082136,365.881402L283.698777,362.811655L279.047847,361.563218L274.447281,357.831887L269.858461,355.431649L264.560342,356.096783L264.472890,350.336257L262.159308,346.688717L259.922456,343.075665L260.078973,337.452206L256.294617,341.042370L251.673668,344.025936L251.775146,345.062735L247.659670,348.356648L244.460442,352.060058L240.226729,354.448453L236.659494,356.852645L232.431581,358.625649L229.472062,361.513526L228.350300,365.857078L224.562297,368.629917L220.575166,371.278719L216.214504,372.546549L214.448333,373.472092L215.769075,374.478151L219.425920,377.851702L219.035510,383.363437L216.855896,386.721294L214.202558,391.451818L213.456104,397.237722L217.843223,399.689081L224.062078,399.373449L226.104180,403.087553L225.974369,407.650209L227.614115,413.318299L223.476851,414.487582L218.650016,414.502483L215.921034,417.507590L217.156837,421.757592L219.235221,427.114453L219.599286,432.019541L219.796559,436.122326L220.589312,441.020768L223.026005,447.048918L227.165138,449.657951L231.579985,450.269931L232.443749,455.132763L233.912199,459.357139L237.774598,463.769583L236.572703,467.845070L237.839090,473.425406L240.192414,476.949798L244.422565,480.029370L245.525556,484.446177L251.884921,487.395023L255.740489,492.477264L257.864402,494.211751L262.094094,494.673490L263.516301,498.143180Z " data-cd-regiao="1"/><path d="M416.308873,561.973620L417.017750,560.680855L418.210940,556.171815L423.311351,552.194713L422.768085,546.738391L421.349474,542.842324L420.378866,537.758183L424.846567,533.384017L428.824602,533.952915L433.518272,532.158881L436.543865,527.481928L438.161451,523.570301L441.101607,519.535280L442.537332,515.367025L439.474386,510.762853L435.428611,508.394743L430.964612,510.212144L425.962801,509.150536L423.806867,505.636821L422.165252,501.238447L421.848543,501.027995L422.353942,499.886466L426.207790,498.215805L426.834195,497.039760L427.227058,492.873552L427.576632,493.299180L429.239655,489.362707L433.914112,489.410461L433.686360,485.154392L431.641620,480.228629L429.407439,475.757402L424.370084,473.600486L420.977102,470.632487L416.601069,470.975175L413.996277,466.949396L414.111811,462.355858L410.382824,459.880195L405.575769,458.279594L401.821562,455.760010L401.097269,451.212791L400.438305,447.178598L397.800697,446.292679L399.295161,443.097795L400.537507,440.940772L399.074940,438.760455L396.093321,435.029988L395.981855,430.925810L391.710306,428.794312L391.477451,426.520817L389.624975,423.339167L385.201887,426.363802L380.978441,428.888402L377.075567,431.192353L373.987089,428.085608L367.424434,427.402368L365.639522,423.244832L361.426963,424.797012L356.996706,423.786283L352.917328,425.259417L350.402353,421.678411L349.416854,420.493257L347.505589,424.058000L347.128071,428.129103L345.110322,431.997871L344.236439,433.307925L342.937889,437.628409L341.991694,439.708546L341.902336,441.574595L342.726242,443.599374L342.254521,443.788252L340.694821,448.191855L336.507161,453.810620L332.009621,454.698796L328.004684,455.235867L328.515857,459.605201L326.453627,464.806684L321.238392,464.304471L316.447284,464.815957L315.582428,469.392925L310.384949,469.525138L306.411291,470.407666L301.702396,468.685862L298.141219,471.445070L295.427917,474.407617L296.150700,478.983621L292.766977,481.463113L287.451717,480.207596L282.926409,483.272552L281.052951,488.282373L277.743877,490.987181L283.237124,491.863145L286.271502,496.310344L291.358597,497.380632L295.294416,500.538965L299.341144,501.750449L303.965946,504.136080L308.950323,506.625581L309.328977,511.367808L312.696023,514.314703L317.551255,516.482252L320.222046,512.907492L325.244920,515.753311L329.430431,514.514317L334.230372,515.348501L338.239044,517.343068L342.024370,520.704109L345.419738,522.949040L346.830747,523.583574L347.018976,524.130614L351.504453,526.640422L355.116999,532.151287L356.630027,536.843298L360.904597,537.387374L361.714442,541.324685L365.725988,542.022967L370.110616,547.710728L374.230269,549.309237L378.163684,550.932892L382.014289,549.387494L382.957099,553.442447L386.931794,555.581912L385.261571,551.609182L389.954830,553.888685L390.241793,558.224513L393.459485,555.028428L397.321660,553.266774L402.044336,554.863540L405.764206,557.347573L409.700156,559.471656L413.297668,561.398542L415.308094,562.263619Z " data-cd-regiao="3"/><path d="M460.066693,595.071866L463.755095,592.807849L462.902846,588.583864L459.505075,585.371799L463.427625,582.619240L467.640571,582.247489L471.536078,580.744677L475.344608,582.389689L480.094575,582.807148L482.203116,586.470647L483.975840,584.583847L485.886780,580.507003L484.132175,576.041079L487.096241,572.205303L490.323391,568.348986L495.052005,568.177963L498.062981,564.624970L499.365996,560.206567L497.821102,555.611735L494.551674,552.588014L495.003117,552.008905L494.375558,550.383259L493.377558,546.306467L490.529961,543.124175L491.891686,543.111777L492.011548,539.347231L488.175160,536.810422L491.056592,533.801964L491.886922,529.809831L496.158312,530.253046L499.905391,527.253977L499.075055,522.676528L500.571513,517.886106L504.433950,515.926943L507.497226,513.191997L511.183320,514.836131L515.393909,514.306407L520.729742,512.822239L524.632414,509.739085L523.513207,508.234509L520.180659,508.175846L518.256284,504.261459L518.696104,500.033382L518.832983,494.507848L518.554622,489.910802L522.946517,490.691338L529.556984,487.078795L531.102609,483.271416L535.567370,480.955634L540.923024,480.238264L545.235761,478.892148L550.051483,478.510373L551.724755,473.972300L556.666879,471.798821L557.289582,471.189134L559.384443,467.345735L562.313019,463.607525L561.832903,462.667811L561.547808,462.652187L558.723985,465.972172L553.876343,465.078972L549.661053,463.612828L545.743839,464.437755L540.986038,464.110890L541.619098,459.197227L537.632624,460.222336L533.213012,458.060175L529.674700,455.501354L528.290296,449.818479L525.472808,446.324365L524.649878,442.233973L528.655146,442.895390L530.842855,446.674776L534.509650,443.311078L536.748788,439.966662L542.211939,438.375656L545.490939,434.823826L545.434199,429.808169L543.509572,425.329352L544.005665,420.915228L540.027379,420.179152L535.515636,417.933827L532.453138,420.756292L529.145312,417.150901L524.040513,414.402131L521.746652,418.693187L517.273944,419.755698L512.603341,419.745111L510.031519,416.840385L512.258333,416.733100L514.141189,412.436310L516.540934,408.401405L517.063053,409.106284L517.933147,405.966192L515.750804,401.419778L515.770077,397.279943L513.384535,394.038174L516.098480,390.915649L516.065933,384.186267L515.516596,382.746474L517.082781,383.053333L518.670633,380.118502L519.492999,378.598959L519.117973,376.332713L518.668194,374.882100L522.968275,373.980993L523.629538,369.975924L529.381940,368.998863L534.050369,368.070645L536.836565,367.297474L538.442457,366.231300L538.292069,362.042520L537.097526,360.990771L534.736058,361.278868L533.253592,357.226919L536.934366,353.023054L538.447328,350.567836L533.425093,349.799554L529.493658,350.584588L525.831670,346.860268L522.297798,348.829756L521.181860,348.491900L521.252478,348.084426L520.666118,343.565147L521.709010,339.108910L522.056027,334.400766L521.090304,329.994284L521.135464,328.805165L519.816031,326.389553L515.410042,312.048794L514.975538,307.391465L516.139130,301.909643L511.953239,299.747947L511.648108,303.966795L508.206529,307.002794L505.037965,309.505632L501.252484,311.479321L498.211123,308.107435L494.457952,310.305052L493.231565,315.146797L490.923090,319.210818L490.570987,323.243081L488.093389,327.971033L485.483524,331.252490L481.295561,333.450896L477.082079,332.921814L475.190834,328.303691L471.963735,323.957750L471.584624,318.533067L471.230336,314.496232L467.947763,311.177330L464.754408,307.463359L461.302642,303.865573L458.125237,307.733038L458.250143,311.884901L455.706434,316.339068L449.537733,319.379085L446.394962,321.955330L445.808265,327.328704L445.176047,333.121724L440.482373,336.288445L438.758186,341.156954L437.188831,346.574225L434.361587,346.775706L433.531017,346.493505L430.590993,343.115746L429.226591,338.774607L425.248846,341.995599L423.113137,345.419518L418.975066,347.301288L416.253386,351.739962L411.899775,350.825338L408.178477,347.988726L404.000300,346.878862L399.788087,345.420636L397.747465,341.211405L393.554206,338.845837L388.318418,338.523280L388.289971,343.490688L388.094391,347.525419L383.774944,350.002505L383.769355,354.048714L383.063191,356.043639L382.653983,356.464003L378.347578,357.613738L375.708009,361.186924L372.169981,363.246882L366.701295,363.120920L362.802172,365.814349L360.324537,369.530397L358.357133,373.210197L358.228463,374.353390L358.933355,376.694727L360.151558,380.526927L358.960406,384.425602L356.768464,389.284157L354.608760,393.431705L358.811756,395.515258L357.039899,399.964176L355.203773,404.541863L354.833970,408.694364L353.780729,410.016056L354.030273,411.764133L351.563436,414.957265L350.402353,421.678411L352.917328,425.259417L356.996706,423.786283L361.426963,424.797012L365.639522,423.244832L367.424434,427.402368L373.987089,428.085608L377.075567,431.192353L380.978441,428.888402L385.201887,426.363802L389.624975,423.339167L391.477451,426.520817L391.710306,428.794312L395.981855,430.925810L396.093321,435.029988L399.074940,438.760455L400.537507,440.940772L399.295161,443.097795L400.438305,447.178598L401.097269,451.212791L401.821562,455.760010L405.575769,458.279594L410.382824,459.880195L414.111811,462.355858L413.996277,466.949396L416.601069,470.975175L420.977102,470.632487L424.370084,473.600486L429.407439,475.757402L431.641620,480.228629L433.686360,485.154392L433.914112,489.410461L429.239655,489.362707L427.576632,493.299180L426.834195,497.039760L426.207790,498.215805L422.353942,499.886466L421.848543,501.027995L422.165252,501.238447L423.806867,505.636821L425.962801,509.150536L430.964612,510.212144L435.428611,508.394743L439.474386,510.762853L442.537332,515.367025L441.101607,519.535280L438.161451,523.570301L436.543865,527.481928L433.518272,532.158881L428.824602,533.952915L424.846567,533.384017L420.378866,537.758183L421.349474,542.842324L422.768085,546.738391L423.311351,552.194713L418.210940,556.171815L417.017750,560.680855L421.034872,563.927951L425.201797,567.106848L428.803681,569.388321L430.930177,574.102803L435.093877,576.119733L435.110462,580.828538L437.290454,584.273824L441.480360,586.526276L446.343929,585.682802L451.729164,584.820497L453.185321,588.568608L455.855860,592.089746L458.961315,595.042687L458.954400,596.243102Z " data-cd-regiao="2"/><path d="M453.551288,630.117147L456.710964,627.196254L461.629868,624.961705L466.237308,624.393878L470.130648,622.459941L475.367507,620.338223L479.350688,621.146729L483.460125,619.685064L487.897867,620.395171L493.547974,619.707001L499.613371,618.652436L503.400491,616.309370L507.552596,616.430263L511.862052,616.006490L515.954992,616.572823L517.619542,622.231409L521.690281,620.818292L526.187924,617.348406L532.540063,614.589782L538.452446,611.001548L543.272482,609.162352L546.786050,607.202998L551.465073,605.598477L559.363431,601.814630L565.261964,599.428676L569.222380,598.415265L573.317917,596.507578L571.340927,592.245015L567.043656,591.154229L568.603639,587.271825L571.419154,584.294703L574.515905,580.821175L573.270075,576.791015L576.230209,572.557729L576.352493,568.548556L578.928018,564.741131L577.826517,559.837983L580.756504,554.532035L584.575370,551.456682L582.330657,547.199006L585.403827,543.330444L589.935735,542.693847L593.541543,540.900338L595.984658,537.221836L599.292072,532.882355L600.509125,529.043243L602.498202,525.381107L601.942329,520.717614L604.113059,517.350358L603.110814,512.844076L604.585216,508.575955L601.987353,505.485723L603.547665,500.975949L606.630918,497.554928L630.008989,494.393227L629.956020,494.310509L627.375586,488.426436L624.560384,485.291607L620.743424,482.313369L617.153190,478.839131L613.154614,477.085058L609.262411,479.475429L605.365767,479.254029L605.444536,478.555542L602.799369,474.612937L605.021303,471.245870L600.997520,470.009028L595.692222,471.726384L592.193258,474.315672L587.750031,475.164337L585.594681,479.480187L582.357554,476.454574L578.266711,474.583121L573.437925,474.929774L569.355881,473.061688L566.632008,469.744988L563.150777,472.296343L558.771568,471.839082L557.289582,471.189134L556.666879,471.798821L551.724755,473.972300L550.051483,478.510373L545.235761,478.892148L540.923024,480.238264L535.567370,480.955634L531.102609,483.271416L529.556984,487.078795L522.946517,490.691338L518.554622,489.910802L518.832983,494.507848L518.696104,500.033382L518.256284,504.261459L520.180659,508.175846L523.513207,508.234509L524.632414,509.739085L520.729742,512.822239L515.393909,514.306407L511.183320,514.836131L507.497226,513.191997L504.433950,515.926943L500.571513,517.886106L499.075055,522.676528L499.905391,527.253977L496.158312,530.253046L491.886922,529.809831L491.056592,533.801964L488.175160,536.810422L492.011548,539.347231L491.891686,543.111777L490.529961,543.124175L493.377558,546.306467L494.375558,550.383259L495.003117,552.008905L494.551674,552.588014L497.821102,555.611735L499.365996,560.206567L498.062981,564.624970L495.052005,568.177963L490.323391,568.348986L487.096241,572.205303L484.132175,576.041079L485.886780,580.507003L483.975840,584.583847L483.579374,589.313149L482.203116,586.470647L480.094575,582.807148L475.344608,582.389689L471.536078,580.744677L467.640571,582.247489L463.427625,582.619240L459.505075,585.371799L462.902846,588.583864L463.755095,592.807849L460.066693,595.071866L458.954400,596.243102L458.517217,600.669605L457.172049,604.869922L458.909842,609.563971L463.321530,608.504274L463.097820,614.877825L458.713984,615.343335L454.201433,615.681744L450.202362,619.403824L449.273928,623.524979L451.790759,628.011248L451.909056,630.202569Z " data-cd-regiao="5"/><path d="M642.583996,377.155975L646.067284,374.473579L649.590323,372.072975L648.986843,365.000673L653.112074,361.493170L653.431997,357.380701L657.296066,355.875999L660.806861,353.851314L665.746483,351.894137L669.103369,354.361365L674.324713,355.144905L666.090572,343.359241L670.804824,341.282077L674.622866,343.562685L678.929489,346.217747L682.722399,344.240544L684.799416,340.788109L689.729373,338.209568L694.719816,340.058136L699.673311,340.203771L703.744879,341.017873L708.108921,343.381769L711.058238,338.204567L713.135488,334.219277L711.185968,328.460437L707.402141,326.647571L704.263826,322.050717L701.149308,318.634420L697.572393,315.417823L693.684290,312.113206L691.706029,307.875311L688.748504,305.015159L686.787263,301.338952L688.632633,296.608965L689.600525,292.313495L688.438977,286.683764L689.958473,282.623088L690.167495,277.422656L692.832306,274.019653L694.489650,268.912227L699.353051,269.835175L703.896773,269.176448L708.221998,270.183044L710.576976,266.460452L707.547716,263.022618L706.659236,258.670040L707.550357,253.171315L709.164599,247.807442L713.252316,247.852074L716.056548,244.655164L719.786020,240.700581L723.374386,238.447529L725.938136,233.401861L729.045306,230.378795L733.128168,228.631601L733.536667,224.019803L735.495505,219.192910L735.655232,213.804035L732.336612,210.820196L727.670947,208.770818L723.868514,206.185414L721.925591,202.656942L717.508514,202.672420L714.797958,198.308861L711.250448,195.594231L706.964834,196.130410L700.583625,195.112138L698.275579,191.474380L694.429728,193.402367L689.558777,192.472120L687.516490,188.831126L682.962040,185.553857L678.212372,188.341518L675.085994,183.722194L670.937484,186.805704L667.858910,184.149554L664.321368,186.501452L660.567027,187.939744L656.470202,189.722103L652.618925,191.032339L648.768777,189.298837L643.673433,189.327259L641.222618,189.571586L640.332720,193.509209L636.366026,195.778620L633.307227,198.789344L629.319646,197.864138L625.762398,199.969243L624.133805,200.126626L621.035685,204.364244L619.057452,208.073879L615.933813,210.632426L617.711500,214.256125L616.721309,217.925040L616.281628,218.104041L612.153632,219.234550L609.066651,216.907737L605.270227,219.049222L602.533776,222.947002L602.441803,227.436345L602.482888,228.393510L603.305506,229.456763L600.625947,232.714262L595.884308,232.638510L591.605563,232.268442L589.592354,236.075005L584.565243,238.845142L580.151415,238.663536L575.028871,239.616498L571.183818,237.859920L569.906133,238.087264L567.357093,239.790385L566.482955,239.953552L567.529536,245.449381L570.204795,249.334848L565.603409,251.826569L560.737058,254.211506L556.932126,255.772013L554.176456,258.349750L553.773993,257.470001L551.566626,260.953184L547.940907,262.716819L547.380950,267.690118L545.159613,272.667020L543.925758,275.253293L543.292199,275.082596L538.008175,277.051299L534.588771,279.905586L531.525889,282.904551L530.057175,286.994034L524.993598,290.988037L521.785066,293.428013L517.627629,295.113228L517.406148,300.872199L516.139130,301.909643L514.975538,307.391465L515.410042,312.048794L519.816031,326.389553L521.135464,328.805165L521.090304,329.994284L522.056027,334.400766L521.709010,339.108910L520.666118,343.565147L521.252478,348.084426L521.181860,348.491900L522.297798,348.829756L525.831670,346.860268L529.493658,350.584588L533.425093,349.799554L538.447328,350.567836L543.215617,349.352453L547.025305,347.753928L551.496055,345.675008L553.792875,344.642764L557.780704,341.510172L560.975461,338.939725L561.421366,337.942585L564.043838,333.510633L566.880695,329.758653L570.709589,326.639439L573.064065,327.372786L575.297329,328.023193L576.904000,328.233241L577.877814,329.204046L577.470637,334.272219L580.516432,337.618578L582.425982,341.181826L584.306178,343.683462L587.251584,346.061993L590.878495,350.108606L591.444163,352.847331L594.928037,350.488624L600.126416,351.064104L602.267542,347.623501L605.610846,344.612017L607.310879,340.522987L610.403874,337.403351L614.719664,336.114464L616.649425,337.385673L616.956341,338.826219L621.279138,341.401613L621.487268,344.555570L622.659410,344.717219L619.512895,348.252825L616.630062,352.003902L617.755921,357.099393L620.800654,360.130215L625.808199,360.550284L629.997085,361.493426L634.362958,361.846475L639.835757,364.930314L639.290806,369.446686L637.478440,373.202658L637.758600,375.763564L639.608117,374.528751L641.669214,378.094198Z " data-cd-regiao="4"/><path d="M418.975066,347.301288L423.113137,345.419518L425.248846,341.995599L429.226591,338.774607L430.590993,343.115746L433.531017,346.493505L434.361587,346.775706L437.188831,346.574225L438.758186,341.156954L440.482373,336.288445L445.176047,333.121724L445.808265,327.328704L446.394962,321.955330L449.537733,319.379085L455.706434,316.339068L458.250143,311.884901L458.125237,307.733038L461.302642,303.865573L464.754408,307.463359L467.947763,311.177330L471.230336,314.496232L471.584624,318.533067L471.963735,323.957750L475.190834,328.303691L477.082079,332.921814L481.295561,333.450896L485.483524,331.252490L488.093389,327.971033L490.570987,323.243081L490.923090,319.210818L493.231565,315.146797L494.457952,310.305052L498.211123,308.107435L501.252484,311.479321L505.037965,309.505632L508.206529,307.002794L511.648108,303.966795L511.953239,299.747947L516.139130,301.909643L517.406148,300.872199L517.627629,295.113228L521.785066,293.428013L524.993598,290.988037L530.057175,286.994034L531.525889,282.904551L534.588771,279.905586L538.008175,277.051299L543.292199,275.082596L543.925758,275.253293L545.159613,272.667020L547.380950,267.690118L547.940907,262.716819L551.566626,260.953184L553.773993,257.470001L554.176456,258.349750L556.932126,255.772013L560.737058,254.211506L565.603409,251.826569L570.204795,249.334848L567.529536,245.449381L566.482955,239.953552L567.357093,239.790385L569.906133,238.087264L575.028871,239.616498L580.151415,238.663536L584.565243,238.845142L589.592354,236.075005L591.605563,232.268442L595.884308,232.638510L600.625947,232.714262L603.305506,229.456763L602.482888,228.393510L602.441803,227.436345L602.533776,222.947002L605.270227,219.049222L609.066651,216.907737L612.153632,219.234550L616.281628,218.104041L616.721309,217.925040L617.711500,214.256125L615.933813,210.632426L619.057452,208.073879L621.035685,204.364244L624.133805,200.126626L625.762398,199.969243L629.319646,197.864138L633.307227,198.789344L636.366026,195.778620L640.332720,193.509209L641.222618,189.571586L640.565258,182.407976L639.790073,172.932657L630.536143,164.046869L613.677072,147.760875L609.938358,145.634297L605.802254,147.432619L602.218350,150.022375L598.137695,148.896808L592.933842,149.959542L589.573909,147.110182L586.433434,143.740279L581.537879,145.255358L576.508390,144.111759L572.744843,142.520901L568.665711,141.801544L565.240212,137.220855L561.404726,134.746475L557.034121,133.630894L553.165956,130.820619L548.740231,128.343221L544.072013,125.165194L538.340443,120.939874L536.198810,117.291241L531.975883,116.454322L527.675765,115.361578L523.758589,114.273996L519.412072,113.171977L513.648338,114.192088L509.957303,115.768599L505.794636,117.155738L501.659120,119.581905L498.341412,122.994843L494.217074,120.818920L488.732603,119.450860L485.112437,117.433002L480.250626,115.303471L476.216144,114.346350L474.252565,110.045358L474.727290,103.474157L477.282740,98.710400L479.184872,93.849930L478.020421,89.763473L472.678431,88.799898L468.557624,87.646838L464.511800,87.276361L459.200609,86.621583L454.115015,85.981594L448.215395,85.165736L443.669139,85.336056L439.762601,87.293063L436.172787,89.590122L431.908377,90.790963L427.338616,92.458748L423.434523,95.434681L419.768522,98.959965L413.597876,101.551036L411.618396,105.057288L408.363984,108.889346L402.989778,111.521095L397.888441,114.399837L395.700326,118.130200L390.996531,119.263254L386.416305,119.080799L382.911623,122.150495L379.814337,125.162262L375.433578,128.398692L371.268221,131.251527L367.656191,133.859561L362.537314,132.859444L359.293955,137.532041L355.590071,141.892424L351.207937,144.811075L349.353514,148.840064L352.553850,153.082635L357.930357,152.212688L356.761375,156.250077L352.719067,158.572703L348.816215,161.723790L347.809272,166.029645L352.105697,166.502273L356.541768,165.029021L360.549613,166.787866L361.541078,171.517904L361.599257,176.180933L361.469263,181.800571L360.641722,186.816221L357.610320,190.207042L353.808584,194.254343L351.558636,198.751467L348.289837,203.206596L347.113881,209.134342L343.367653,211.004585L339.221948,211.047392L336.478704,206.805383L331.934946,208.158464L330.953654,213.387298L329.341379,217.733707L325.601161,221.743125L321.501502,221.418499L318.654837,224.561657L320.503124,228.455829L324.713256,230.843240L329.062565,230.316256L333.943621,230.872334L337.982606,230.886488L340.883043,233.938876L339.985036,238.082455L340.401780,241.158678L337.681823,242.769495L335.782326,247.396626L335.136921,252.343942L340.022210,253.240398L343.881190,257.093437L345.887962,261.643621L350.649306,263.337671L353.505860,266.276585L357.294883,264.945242L361.258406,265.678371L364.603095,268.711587L366.911529,272.704593L363.364159,276.154441L365.925744,279.306989L370.765196,280.227307L368.448076,285.072082L367.592689,290.309821L367.059832,295.150320L363.387159,299.195320L367.192640,303.265652L371.160445,306.473897L374.957437,308.704296L373.099235,313.220884L372.996944,317.243995L372.852131,322.083448L372.751675,326.829526L369.705841,329.845210L369.628994,334.614595L374.788748,334.672674L378.055535,337.196632L382.187018,340.349827L388.318418,338.523280L393.554206,338.845837L397.747465,341.211405L399.788087,345.420636L404.000300,346.878862L408.178477,347.988726L411.899775,350.825338L416.253386,351.739962Z " data-cd-regiao="7"/><path d="M347.877739,376.982804L349.907800,373.359275L353.203462,376.086161L358.228463,374.353390L358.357133,373.210197L360.324537,369.530397L362.802172,365.814349L366.701295,363.120920L372.169981,363.246882L375.708009,361.186924L378.347578,357.613738L382.653983,356.464003L383.063191,356.043639L383.769355,354.048714L383.774944,350.002505L388.094391,347.525419L388.289971,343.490688L382.187018,340.349827L378.055535,337.196632L374.788748,334.672674L369.628994,334.614595L369.705841,329.845210L372.751675,326.829526L372.852131,322.083448L372.996944,317.243995L373.099235,313.220884L374.957437,308.704296L371.160445,306.473897L367.192640,303.265652L363.387159,299.195320L367.059832,295.150320L367.592689,290.309821L368.448076,285.072082L370.765196,280.227307L365.925744,279.306989L363.364159,276.154441L366.911529,272.704593L364.603095,268.711587L361.258406,265.678371L357.294883,264.945242L353.505860,266.276585L350.649306,263.337671L345.887962,261.643621L343.881190,257.093437L340.022210,253.240398L335.136921,252.343942L335.782326,247.396626L337.681823,242.769495L340.401780,241.158678L339.985036,238.082455L340.883043,233.938876L337.982606,230.886488L333.943621,230.872334L329.062565,230.316256L324.713256,230.843240L320.503124,228.455829L318.654837,224.561657L317.184506,220.397063L321.501502,221.418499L325.601161,221.743125L329.341379,217.733707L330.953654,213.387298L331.934946,208.158464L336.478704,206.805383L339.221948,211.047392L343.367653,211.004585L347.113881,209.134342L348.289837,203.206596L351.558636,198.751467L353.808584,194.254343L357.610320,190.207042L360.641722,186.816221L361.469263,181.800571L361.599257,176.180933L361.541078,171.517904L360.549613,166.787866L356.541768,165.029021L352.105697,166.502273L347.809272,166.029645L348.816215,161.723790L352.719067,158.572703L356.761375,156.250077L357.930357,152.212688L352.553850,153.082635L349.353514,148.840064L351.207937,144.811075L346.049200,144.412251L342.492334,147.470384L336.959121,146.260940L335.096678,150.047332L331.540532,152.455821L327.455231,152.431882L328.876376,148.681727L331.164486,144.752209L335.508946,139.483682L336.239995,134.315938L333.441746,131.194523L328.725404,130.217487L324.834075,131.848463L320.791889,132.549018L316.821509,131.991417L312.898248,130.000885L312.814694,125.630041L309.786284,122.853362L305.934027,120.188333L303.128182,117.318328L299.420551,119.491782L297.116563,123.741652L298.958492,128.961131L298.304651,133.606039L299.664897,137.838684L295.949654,142.671576L290.745700,142.540314L287.304549,140.378563L282.173303,138.303188L277.471179,137.787934L273.006135,141.061093L275.461188,144.790940L273.374405,149.300229L272.961366,154.550954L276.535324,156.590988L278.271171,160.759850L274.094841,165.231289L272.791464,170.129736L271.747590,175.025781L275.186947,177.614749L277.720513,180.773064L278.855858,185.880826L280.830639,190.817490L281.379394,195.744563L271.748226,199.745684L267.293641,200.620008L263.614045,202.653578L258.709501,201.133724L255.037676,204.767400L249.954055,206.261732L248.297554,210.375004L246.575722,214.547693L247.187825,219.018400L245.874958,224.492485L244.132088,229.447397L240.972061,232.717996L239.343203,237.579028L239.977382,242.737469L243.116179,245.321414L247.330631,247.321303L251.362094,250.992528L254.410676,254.839830L255.026334,258.902816L255.809255,262.975543L256.672939,267.315621L259.454406,271.656982L259.814964,276.003031L256.502781,278.840422L251.535882,281.080589L247.720239,285.302889L244.421002,289.636555L241.256159,292.966410L240.013825,296.784998L235.637143,298.266217L235.158619,302.448378L237.002909,307.322387L240.383949,310.788325L244.688300,309.181249L249.381869,311.116604L252.424472,315.452998L252.280335,320.085112L249.235876,323.633343L246.900882,327.826577L246.759820,332.482163L248.041091,336.419929L249.831321,340.316452L250.845595,344.304434L251.775146,345.062735L251.673668,344.025936L256.294617,341.042370L260.078973,337.452206L259.922456,343.075665L262.159308,346.688717L264.472890,350.336257L264.560342,356.096783L269.858461,355.431649L274.447281,357.831887L279.047847,361.563218L283.698777,362.811655L287.082136,365.881402L288.183824,366.524132L293.595214,368.982079L295.733283,369.289764L297.490729,370.370772L299.131576,372.082750L303.393855,373.890046L307.763244,376.829170L311.705420,377.627288L315.302411,379.688570L319.467962,376.196289L323.379154,377.418265L326.314574,376.536836L328.656430,377.991891L332.879746,378.002344L337.444662,377.802599L341.594637,380.836680L346.328734,381.584015Z " data-cd-regiao="6"/><path d="M329.250628,676.774754L333.995710,675.801436L338.712423,673.583735L342.500333,670.359294L344.018743,674.394183L347.249956,671.395633L351.684386,671.969377L354.054262,668.161116L353.818774,663.851311L349.841922,665.033834L352.661091,660.395875L354.734374,656.961689L357.165446,653.689575L357.033315,657.989443L361.586154,657.145382L365.944641,659.065129L370.036926,655.441376L374.212409,657.749389L378.992511,656.655683L383.504843,655.867378L388.757829,652.015864L391.891130,648.412825L396.526502,646.592748L400.581076,646.324230L406.469592,645.370671L410.429125,643.905577L413.086525,640.890563L417.092512,639.113262L421.116003,639.935853L424.652297,636.797073L429.541126,637.088687L433.784119,633.581777L438.281085,632.221381L443.183590,632.274342L447.416353,632.361546L451.909056,630.202569L451.790759,628.011248L449.273928,623.524979L450.202362,619.403824L454.201433,615.681744L458.713984,615.343335L463.097820,614.877825L463.321530,608.504274L458.909842,609.563971L457.172049,604.869922L458.517217,600.669605L458.954400,596.243102L458.961315,595.042687L455.855860,592.089746L453.185321,588.568608L451.729164,584.820497L446.343929,585.682802L441.480360,586.526276L437.290454,584.273824L435.110462,580.828538L435.093877,576.119733L430.930177,574.102803L428.803681,569.388321L425.201797,567.106848L421.034872,563.927951L417.017750,560.680855L416.308873,561.973620L415.308094,562.263619L413.297668,561.398542L409.700156,559.471656L405.764206,557.347573L402.044336,554.863540L397.321660,553.266774L393.459485,555.028428L390.241793,558.224513L389.954830,553.888685L385.261571,551.609182L386.931794,555.581912L382.957099,553.442447L382.014289,549.387494L378.163684,550.932892L374.230269,549.309237L370.110616,547.710728L365.725988,542.022967L361.714442,541.324685L360.904597,537.387374L356.630027,536.843298L355.116999,532.151287L351.504453,526.640422L347.018976,524.130614L346.830747,523.583574L345.419738,522.949040L342.024370,520.704109L338.239044,517.343068L334.230372,515.348501L329.430431,514.514317L325.244920,515.753311L320.222046,512.907492L317.551255,516.482252L312.696023,514.314703L309.328977,511.367808L308.950323,506.625581L303.965946,504.136080L299.341144,501.750449L295.294416,500.538965L291.358597,497.380632L286.271502,496.310344L283.237124,491.863145L277.743877,490.987181L272.786349,492.008579L268.785716,491.528630L264.804527,492.647380L265.702424,498.012545L263.516301,498.143180L262.094094,494.673490L257.864402,494.211751L254.982880,498.049188L252.824941,502.671073L253.686841,506.578198L255.416606,510.870829L259.072501,513.052545L262.891814,515.315024L264.264352,519.356454L265.736235,525.297370L261.673277,526.675050L260.197128,531.415313L258.613095,535.305919L257.031625,539.289988L260.262500,542.176441L263.272993,545.835880L263.188512,551.071867L264.081241,556.132781L266.530063,561.326749L269.804550,564.926005L271.375552,568.906756L272.481354,573.126033L277.837966,576.039421L281.945591,573.442676L286.146840,572.257065L290.557823,573.355820L295.199457,571.574836L297.282923,576.824604L301.755678,576.749749L304.077018,580.016889L304.625387,584.150232L303.559162,588.472113L300.509850,591.657514L296.585341,594.921727L296.821583,598.999109L292.744898,603.874572L295.536517,606.808643L295.058591,610.845874L297.488355,614.611190L293.851827,616.510034L291.382666,621.242436L295.728676,621.247476L298.818311,624.249125L295.866976,627.294882L292.847061,631.833837L291.423414,635.984905L294.123735,640.200766L296.932780,644.707457L301.793086,645.397350L304.852145,649.495737L309.098350,651.708912L310.126732,655.755538L312.136785,660.073924L306.622790,661.168029L309.248137,664.455205L313.468570,665.784409L313.259318,671.320509L314.593227,676.250112L319.450806,674.721997L324.916714,673.786065L327.338627,676.985334L328.289828,677.689747Z " data-cd-regiao="9"/><path d="M631.873016,493.182295L634.212342,488.703049L635.248987,484.267536L636.818796,480.029583L637.659153,476.115089L642.177821,473.980198L645.100746,470.203016L645.842241,465.936689L645.926701,461.119721L648.384451,457.204812L650.913189,453.618519L654.983345,451.396424L654.264123,446.771658L659.236238,447.032603L659.738104,441.465957L661.662713,436.210996L663.241055,430.283259L662.711992,425.545273L660.457284,422.064310L657.307753,417.642417L654.103430,415.075710L657.111602,410.648275L652.508600,407.900070L649.542895,404.814848L644.996916,402.292745L643.525081,398.306778L648.918706,398.442222L652.183512,401.568554L657.252615,401.339244L662.001834,400.626548L662.487218,391.336506L658.403722,389.741535L656.122857,385.467815L657.277469,380.171476L657.570398,375.369979L647.224423,374.135778L646.067284,374.473579L642.583996,377.155975L641.669214,378.094198L639.608117,374.528751L637.758600,375.763564L637.478440,373.202658L639.290806,369.446686L639.835757,364.930314L634.362958,361.846475L629.997085,361.493426L625.808199,360.550284L620.800654,360.130215L617.755921,357.099393L616.630062,352.003902L619.512895,348.252825L622.659410,344.717219L621.487268,344.555570L621.279138,341.401613L616.956341,338.826219L616.649425,337.385673L614.719664,336.114464L610.403874,337.403351L607.310879,340.522987L605.610846,344.612017L602.267542,347.623501L600.126416,351.064104L594.928037,350.488624L591.444163,352.847331L590.832384,353.000903L590.878495,350.108606L587.251584,346.061993L584.306178,343.683462L582.425982,341.181826L580.516432,337.618578L577.470637,334.272219L577.877814,329.204046L576.904000,328.233241L575.297329,328.023193L573.064065,327.372786L570.709589,326.639439L566.880695,329.758653L564.043838,333.510633L563.512385,337.527537L561.421366,337.942585L560.975461,338.939725L557.780704,341.510172L553.792875,344.642764L551.496055,345.675008L547.025305,347.753928L543.215617,349.352453L538.447328,350.567836L536.934366,353.023054L533.253592,357.226919L534.736058,361.278868L537.097526,360.990771L538.292069,362.042520L538.442457,366.231300L536.836565,367.297474L534.050369,368.070645L529.381940,368.998863L523.629538,369.975924L522.968275,373.980993L518.668194,374.882100L519.117973,376.332713L519.492999,378.598959L518.670633,380.118502L517.082781,383.053333L515.516596,382.746474L516.065933,384.186267L516.098480,390.915649L513.384535,394.038174L515.770077,397.279943L515.750804,401.419778L517.933147,405.966192L517.063053,409.106284L516.540934,408.401405L514.141189,412.436310L512.258333,416.733100L510.031519,416.840385L512.603341,419.745111L517.273944,419.755698L521.746652,418.693187L524.040513,414.402131L529.145312,417.150901L532.453138,420.756292L535.515636,417.933827L540.027379,420.179152L544.005665,420.915228L543.509572,425.329352L545.434199,429.808169L545.490939,434.823826L542.211939,438.375656L536.748788,439.966662L534.509650,443.311078L530.842855,446.674776L528.655146,442.895390L524.649878,442.233973L525.472808,446.324365L528.290296,449.818479L529.674700,455.501354L533.213012,458.060175L537.632624,460.222336L541.619098,459.197227L540.986038,464.110890L545.743839,464.437755L549.661053,463.612828L553.876343,465.078972L558.723985,465.972172L561.547808,462.652187L561.832903,462.667811L562.313019,463.607525L559.384443,467.345735L557.289582,471.189134L558.771568,471.839082L563.150777,472.296343L566.632008,469.744988L569.355881,473.061688L573.437925,474.929774L578.266711,474.583121L582.357554,476.454574L585.594681,479.480187L587.750031,475.164337L592.193258,474.315672L595.692222,471.726384L600.997520,470.009028L605.021303,471.245870L602.799369,474.612937L605.444536,478.555542L605.365767,479.254029L609.262411,479.475429L613.154614,477.085058L617.153190,478.839131L620.743424,482.313369L624.560384,485.291607L627.375586,488.426436L629.956020,494.310509Z " data-cd-regiao="8"/></g></svg>