<?xml version="1.0" ?><!DOCTYPE svg  PUBLIC '-//W3C//DTD SVG 1.1//EN'  'http://www.w3.org/Graphics/SVG/1.1/DTD/svg11.dtd'><svg enable_background="new 0 0 800 659" height="659px" style="stroke-linejoin: round; stroke:#000; fill:#f6f3f0;" version="1.1" viewBox="0 0 800 659" width="800px" xmlns="http://www.w3.org/2000/svg" xmlns:xlink="http://www.w3.org/1999/xlink"><defs><style type="text/css"><![CDATA[path { fill-rule: evenodd; }
#context path { fill: #eee; stroke: #bbb; } ]]></style></defs><metadata><views><view h="659.578642146" padding="0" w="800"><proj id="laea" lat0="-21.0109663375" lon0="-42.8197215748"/><bbox h="107.52" w="130.61" x="904.54" y="916.47"/><llbbox lat0="-90" lat1="90" lon0="-180" lon1="180"/></view></views></metadata><g id="district"><path d="M491,602L493,601L494,600L496,599L498,598L500,597L502,598L504,597L506,596L507,595L509,594L511,593L513,593L515,592L517,591L518,591L519,592L521,592L523,591L525,591L527,591L529,591L531,591L533,592L535,591L537,591L539,591L541,590L543,590L544,588L546,587L547,586L549,586L551,587L553,586L555,586L556,588L559,588L561,588L563,588L562,590L561,592L563,592L565,592L567,592L569,591L569,589L571,588L573,587L575,586L577,585L579,584L580,583L582,582L584,581L586,580L588,579L590,579L592,577L594,576L596,576L598,575L600,574L601,573L603,572L605,571L608,570L610,569L613,568L615,567L617,566L619,566L621,565L623,564L623,562L622,560L620,560L618,559L617,557L617,555L618,554L619,552L621,550L622,549L624,548L623,546L622,544L623,542L623,540L625,540L625,538L626,536L625,534L626,532L627,531L628,529L629,527L628,525L628,523L629,521L630,520L631,518L633,517L634,515L635,514L636,512L634,511L633,510L632,508L633,507L635,506L637,505L639,505L641,505L643,505L645,504L645,502L646,500L647,499L647,496L648,495L650,494L651,492L651,492L652,490L652,488L653,486L655,485L656,483L654,482L654,480L654,478L656,476L656,474L655,472L657,471L656,469L656,467L654,466L653,464L653,462L653,460L655,459L656,457L658,456L658,454L659,452L660,450L663,450L668,450L672,451L676,451L678,451L681,451L684,451L684,451L682,449L683,448L682,446L681,444L679,444L678,442L678,440L676,439L675,438L674,436L675,434L672,434L670,434L668,434L667,433L666,431L664,432L663,433L661,435L660,434L658,434L656,432L655,431L654,429L655,427L656,426L656,424L655,422L653,423L652,424L651,426L649,426L647,426L645,426L644,428L644,430L643,429L641,429L639,430L637,430L636,432L635,434L634,435L632,435L631,433L631,431L630,430L628,429L626,429L624,429L622,429L620,430L618,429L618,427L617,426L615,424L613,424L611,424L610,426L609,428L607,427L605,427L603,426L603,427L601,427L599,428L597,429L598,431L597,433L595,434L593,434L591,436L590,436L588,435L586,436L584,436L582,436L580,437L579,438L577,437L575,438L574,440L574,442L573,444L572,446L570,446L568,447L566,448L564,448L562,448L560,447L560,449L561,451L561,453L560,455L559,457L560,458L562,460L561,461L561,463L561,465L562,467L563,468L565,468L567,467L568,469L566,470L564,472L563,473L561,473L559,474L557,475L555,475L553,474L552,473L550,473L548,474L547,475L545,476L543,476L542,478L541,480L540,481L540,483L541,485L540,487L540,489L539,490L537,491L536,492L534,492L532,493L532,495L530,497L530,499L528,499L529,500L531,501L532,502L533,504L534,505L534,505L534,505L534,505L534,506L534,506L533,506L533,506L533,506L533,506L532,506L532,506L532,506L532,506L532,506L532,506L531,506L531,506L531,506L531,506L531,506L531,506L531,507L532,507L532,507L532,507L532,507L532,507L532,507L532,507L532,508L532,508L532,508L532,508L532,508L532,508L532,508L532,508L532,508L532,508L532,509L532,509L533,509L533,509L534,510L534,510L534,510L534,510L534,510L534,510L534,510L534,510L534,510L534,510L534,510L534,510L534,510L534,510L534,510L534,510L534,511L534,511L534,511L534,511L534,511L534,511L534,511L534,511L534,511L534,511L534,511L535,511L535,511L535,512L535,512L535,512L535,512L535,513L535,513L535,513L535,513L535,513L535,513L535,514L535,514L535,514L535,514L535,514L535,514L534,514L534,514L534,514L534,515L534,515L534,515L534,515L534,515L534,515L534,515L534,515L535,515L535,515L535,514L535,514L535,515L535,515L535,515L536,515L536,515L536,515L536,515L536,515L536,515L536,516L536,516L536,516L536,516L535,517L535,517L536,517L536,517L536,517L536,517L536,517L536,517L536,517L536,517L536,517L536,517L536,517L536,517L536,517L536,518L536,518L536,518L537,518L537,518L537,519L537,519L537,519L537,519L537,519L537,519L538,519L538,519L538,519L538,519L538,519L538,519L538,519L539,520L539,520L539,521L539,521L539,521L539,521L539,521L539,521L540,521L540,521L541,521L541,521L542,521L542,521L541,523L540,525L541,526L541,528L539,530L538,532L536,533L535,534L533,533L531,534L529,535L528,537L527,539L527,539L526,539L526,539L526,539L526,539L526,539L526,539L525,539L525,539L525,539L525,539L524,540L524,540L524,540L524,540L524,540L524,539L524,539L524,539L524,539L524,539L524,539L524,539L524,539L524,539L523,539L523,539L523,540L523,540L522,541L522,541L522,541L522,541L522,542L522,542L523,542L523,542L523,542L523,542L524,542L524,542L524,543L524,543L524,543L524,543L524,543L524,543L524,543L524,543L525,544L525,544L525,544L525,544L525,544L525,544L525,545L525,545L525,545L525,545L525,545L525,545L525,545L525,545L525,546L525,546L525,546L525,546L525,546L525,546L526,546L526,546L526,546L526,546L526,546L526,546L525,547L526,547L526,547L526,547L526,547L526,547L526,547L526,547L526,547L526,547L526,547L526,548L526,548L526,548L525,548L525,548L525,548L525,549L525,549L524,550L524,550L524,550L523,550L523,550L523,550L524,550L524,550L524,550L524,552L524,552L524,552L524,552L524,553L524,553L524,553L524,553L524,554L524,554L523,554L524,554L523,554L523,554L523,554L523,554L523,554L522,554L521,552L520,550L518,550L516,550L514,549L512,548L510,548L508,549L506,549L504,550L503,551L501,551L499,550L497,550L495,550L496,552L497,554L499,555L501,556L502,557L504,558L504,560L503,561L501,561L502,563L500,564L498,564L497,565L496,566L496,568L496,570L495,571L495,573L495,575L495,577L497,579L498,580L500,579L502,579L502,581L503,583L502,585L502,587L500,587L498,588L497,587L495,586L493,586L492,587L491,589L489,590L487,591L487,591L487,591L487,592L487,592L488,592L488,592L488,593L488,593L488,593L488,593L488,593L489,594L487,594L487,594L487,594L487,594L487,594L487,594L487,594L487,594L487,595L487,595L486,595L486,595L486,595L486,595L486,595L486,595L486,596L486,596L487,596L487,596L487,596L488,596L488,595L488,596L488,596L488,596L488,596L488,597L488,597L488,597L488,597L488,598L488,598L488,598L488,598L488,599L488,599L488,599L488,599L488,599L488,599L488,600L488,600L488,600L488,600L489,600L489,600L489,601L489,601L489,601L489,601L489,601L489,601L489,601L489,602L489,602L489,602L489,603L489,603L489,603L489,603L489,603L489,603L489,603L489,603L489,603L489,603L490,603Z " data-cd-geocodu="31" data-nm-meso="ZONA DA MATA"/><path d="M685,450L686,449L687,447L688,445L689,443L690,440L691,439L691,437L691,435L691,433L692,430L695,430L697,429L699,428L700,427L700,424L701,422L702,420L701,418L701,416L701,414L701,412L702,410L704,409L706,408L707,406L709,405L710,403L711,401L711,399L711,397L713,398L716,398L717,396L717,394L716,392L717,390L719,389L718,387L720,385L719,383L718,381L720,379L718,378L719,376L719,374L718,372L717,370L716,369L714,367L713,366L711,365L710,363L709,361L711,360L712,358L710,357L709,356L707,355L706,353L705,351L703,349L701,349L699,350L697,348L697,346L698,344L702,344L705,344L706,346L707,348L709,347L712,347L714,348L718,347L719,347L720,345L719,343L719,340L718,336L716,335L714,334L712,333L711,332L712,330L713,324L713,321L713,319L708,318L702,317L701,318L700,319L698,321L696,321L695,322L694,320L693,318L692,320L692,318L691,316L691,314L693,313L692,311L692,309L694,309L693,307L692,305L690,304L688,304L686,305L684,305L683,303L681,304L679,304L677,303L676,304L674,304L672,302L671,301L669,300L669,298L668,296L668,294L669,293L670,291L671,289L672,288L674,287L673,285L673,285L673,284L673,284L672,284L672,281L672,281L671,281L671,281L669,280L668,279L668,279L668,278L668,278L667,278L667,278L666,278L664,277L663,278L661,277L660,279L658,280L657,282L656,283L655,285L655,287L653,288L652,289L651,291L649,293L647,293L645,293L643,293L642,294L640,295L640,295L640,294L639,294L639,293L639,293L639,293L639,293L638,291L638,291L638,290L638,290L637,290L637,290L637,290L637,290L636,290L636,290L636,289L636,290L635,289L636,289L635,288L635,288L635,288L635,288L635,287L635,287L634,287L634,287L634,287L634,287L634,286L634,286L634,286L634,286L633,286L633,286L632,285L632,285L633,285L633,285L632,285L632,285L632,285L632,285L631,285L631,285L631,284L630,284L630,284L630,284L630,283L630,283L630,283L630,283L630,281L629,280L627,278L627,278L627,277L627,277L626,277L625,275L625,275L624,275L624,275L624,274L624,274L624,274L624,274L624,274L624,273L623,272L623,272L623,272L623,272L623,272L624,272L624,271L624,271L623,269L624,269L624,269L624,269L624,269L624,269L624,269L624,269L624,268L624,268L624,268L624,268L624,268L624,268L623,267L623,267L623,267L621,267L621,267L620,267L620,267L620,267L620,267L619,267L619,267L619,267L619,267L618,267L618,267L618,267L617,267L617,267L616,266L616,266L616,267L616,267L616,268L616,268L616,268L616,268L616,268L616,268L616,269L616,269L616,270L616,270L615,270L614,268L614,268L614,268L614,268L614,268L614,268L614,268L614,268L613,269L613,269L613,269L613,268L613,269L613,269L612,270L612,270L611,270L611,270L611,270L611,270L611,270L611,270L611,270L611,270L610,270L610,270L610,269L610,270L610,270L610,270L610,271L610,271L610,271L610,271L610,272L610,272L609,272L609,272L609,272L609,272L609,273L609,273L609,274L609,274L609,274L609,275L608,275L608,275L608,276L608,276L608,277L608,277L608,277L608,277L608,277L608,277L608,278L608,278L608,278L608,278L608,278L608,278L608,278L608,278L608,278L608,278L607,279L607,279L606,279L606,279L606,279L606,281L606,281L605,280L605,280L605,280L605,280L605,280L603,280L603,280L603,280L603,280L603,280L603,280L603,280L603,280L603,280L603,280L603,281L603,281L603,282L603,282L601,283L601,283L600,283L600,283L600,283L600,283L599,284L599,284L599,285L599,285L599,285L599,285L599,285L598,286L598,286L598,287L598,287L597,287L597,287L597,287L597,287L597,287L596,288L596,288L596,288L596,287L596,287L596,287L595,288L595,288L595,288L595,288L595,288L595,288L594,288L594,288L594,288L594,288L593,289L593,289L593,290L593,290L593,290L593,290L592,291L590,290L588,290L586,291L584,291L582,291L581,293L581,293L580,293L580,294L580,294L579,295L579,295L579,296L579,296L579,296L579,296L578,296L578,296L578,296L578,296L578,297L577,297L576,298L576,298L576,298L576,300L576,300L576,300L576,300L575,301L575,301L576,302L576,302L577,303L577,303L577,304L577,304L577,304L577,305L578,305L578,305L578,305L578,305L579,305L579,305L580,304L580,304L580,304L580,304L580,304L581,306L581,306L581,306L581,306L581,306L581,306L581,307L581,307L581,307L581,307L581,307L581,308L581,308L581,308L581,309L581,309L581,309L581,309L581,309L581,309L581,309L581,310L581,311L580,311L579,312L576,312L575,312L573,312L571,313L569,314L567,314L565,314L564,315L564,317L564,319L562,320L560,320L560,321L560,321L560,321L560,322L560,322L560,322L560,323L560,323L560,323L559,323L559,324L560,324L560,324L560,324L560,324L560,324L560,324L561,324L561,324L561,324L561,324L561,325L561,325L561,325L560,326L560,326L560,326L559,326L559,326L559,326L559,326L559,326L559,326L559,326L559,327L559,327L558,329L558,329L558,329L558,329L557,329L557,329L556,329L557,331L556,333L556,335L557,337L558,338L556,338L555,340L554,342L555,342L555,342L555,342L555,342L555,342L556,342L556,342L556,342L556,342L557,343L557,343L557,343L557,343L557,343L556,345L557,346L557,346L557,346L557,346L557,346L557,347L557,347L557,347L557,347L557,349L557,349L557,349L557,349L557,349L557,350L557,350L557,350L557,349L557,349L557,350L557,350L558,350L558,350L558,350L558,350L559,352L559,352L559,353L559,355L559,355L560,356L560,356L560,357L560,357L559,357L559,357L559,358L559,358L559,358L559,358L558,357L558,357L557,357L557,357L557,357L556,359L556,359L556,359L556,359L555,360L555,360L555,360L555,360L555,360L555,360L554,360L554,360L554,360L554,360L555,362L555,362L554,363L554,363L554,364L554,364L554,364L554,364L554,364L554,364L554,365L554,365L554,365L555,366L554,366L553,366L553,366L553,366L552,366L551,366L551,366L551,367L552,368L553,370L555,369L557,369L559,369L561,368L563,368L565,367L565,365L566,364L568,364L570,365L571,367L572,368L574,370L576,369L577,368L579,368L581,369L583,370L584,371L586,371L588,371L586,372L587,374L588,376L590,376L590,378L590,380L591,382L591,384L590,386L590,386L589,387L589,387L589,387L589,387L589,387L589,387L589,387L589,387L588,388L588,388L588,388L588,388L588,389L588,389L588,389L586,390L584,390L582,391L580,391L580,393L579,395L578,397L578,399L576,399L574,399L573,397L572,395L571,394L570,392L568,392L568,394L568,396L568,398L568,400L569,401L571,403L571,404L571,407L573,408L574,410L574,412L575,413L577,413L578,415L580,415L582,415L582,413L584,413L586,413L585,415L586,417L587,419L589,418L591,419L591,417L593,417L595,418L597,418L599,418L601,419L603,420L605,420L606,419L608,418L609,416L609,417L609,417L609,418L607,419L607,421L606,423L604,424L603,426L605,427L607,427L609,428L610,426L611,424L613,424L615,424L617,426L618,427L618,429L620,430L622,429L624,429L626,429L628,429L630,430L631,431L631,433L632,435L634,435L635,434L636,432L637,430L639,430L641,429L643,429L644,430L644,428L645,426L647,426L649,426L651,426L652,424L653,423L655,422L656,424L656,426L655,427L654,429L655,431L656,432L658,434L660,434L661,435L663,433L664,432L666,431L667,433L668,434L670,434L672,434L675,434L674,436L675,438L676,439L678,440L678,442L679,444L681,444L682,446L683,448L682,449L684,451L684,451Z " data-cd-geocodu="31" data-nm-meso="VALE DO RIO DOCE"/><path d="M696,321L698,321L700,319L701,318L702,317L702,317L703,316L703,314L704,312L704,310L703,308L705,306L706,305L708,303L708,301L708,299L710,298L712,297L714,296L716,297L716,295L718,295L720,294L723,293L725,294L726,296L728,296L730,296L731,295L731,293L722,283L724,283L726,282L728,282L730,282L731,284L733,285L735,285L736,286L738,286L740,285L742,284L743,282L743,280L745,280L746,278L748,277L750,278L752,278L754,279L756,279L758,279L761,279L763,279L765,281L767,282L769,283L771,283L769,281L768,279L772,277L774,273L773,271L771,269L772,267L771,265L769,264L767,263L766,261L764,259L764,257L762,256L762,258L761,256L759,256L757,255L757,252L755,253L754,251L752,249L752,246L751,245L750,243L748,242L746,241L744,241L743,239L744,238L745,236L745,234L746,232L748,230L747,228L747,226L748,224L746,222L746,220L747,218L748,216L747,214L748,212L748,210L749,208L751,207L751,205L752,203L753,200L755,200L757,201L757,201L756,199L755,197L753,197L751,196L749,194L747,194L746,193L744,193L742,193L741,195L740,196L738,197L736,196L734,196L732,196L730,197L729,198L727,199L726,198L725,196L723,195L721,195L720,197L719,199L718,200L717,202L715,203L713,203L712,205L710,205L708,205L707,207L706,208L705,210L703,211L701,211L699,212L697,212L695,212L694,212L692,214L692,214L692,214L692,215L692,215L692,215L692,217L692,217L691,217L691,217L691,217L691,217L691,217L691,218L691,218L691,218L691,218L691,218L692,219L692,219L691,220L691,220L691,222L691,222L691,222L691,222L691,223L691,223L691,224L691,224L691,224L691,224L691,225L692,225L692,226L692,226L692,226L691,226L692,226L692,226L692,226L692,226L692,226L692,227L692,227L692,227L692,227L692,227L693,227L692,228L692,228L693,229L693,229L693,230L693,230L693,230L693,230L693,231L693,231L693,232L693,232L692,232L691,233L691,233L690,235L690,235L690,235L690,233L690,233L690,232L690,232L690,231L690,231L689,231L689,231L689,231L689,231L688,231L688,231L688,231L687,231L687,231L687,231L686,231L686,231L686,231L686,231L686,232L686,232L685,233L685,233L685,233L685,233L685,233L685,233L685,233L685,233L685,233L684,233L684,233L684,233L684,233L682,232L682,232L681,232L681,232L681,232L681,232L680,232L680,232L680,232L680,232L679,232L679,232L678,231L678,231L678,231L678,231L678,231L678,231L678,231L677,230L677,230L677,230L677,230L677,230L676,229L674,229L674,229L674,229L674,229L673,229L673,229L672,229L671,227L671,227L670,226L670,226L669,226L667,226L667,226L666,227L666,227L666,227L666,227L666,228L666,228L666,229L666,229L666,229L666,229L666,230L666,230L665,230L665,230L665,230L665,230L665,230L665,230L665,230L665,230L665,230L665,230L664,231L663,232L663,232L663,233L663,233L663,235L662,237L661,238L660,240L661,242L659,243L658,245L657,246L655,247L653,247L651,248L650,250L648,251L647,253L646,254L644,256L644,258L643,256L642,255L640,254L638,254L636,253L634,252L634,250L634,248L632,247L632,245L631,243L629,242L628,243L627,245L626,247L625,248L625,250L624,252L624,254L625,255L625,257L626,259L626,261L628,263L628,265L628,267L626,267L624,268L624,268L624,268L624,268L624,268L624,268L624,269L624,269L624,269L624,269L624,269L624,269L624,269L623,269L624,271L624,271L624,272L623,272L623,272L623,272L623,272L623,272L624,273L624,274L624,274L624,274L624,274L624,274L624,275L624,275L625,275L625,275L626,277L627,277L627,277L627,278L627,278L629,280L630,281L630,283L630,283L630,283L630,283L630,284L630,284L630,284L631,284L631,285L631,285L632,285L632,285L632,285L632,285L633,285L633,285L632,285L632,285L633,286L633,286L634,286L634,286L634,286L634,286L634,287L634,287L634,287L634,287L635,287L635,287L635,288L635,288L635,288L635,288L636,289L635,289L636,290L636,289L636,290L636,290L637,290L637,290L637,290L637,290L638,290L638,290L638,291L638,291L639,293L639,293L639,293L639,293L639,294L640,294L640,295L640,295L642,294L643,293L645,293L647,293L649,293L651,291L652,289L653,288L655,287L655,285L656,283L657,282L658,280L660,279L661,277L663,278L664,277L666,278L667,278L667,278L668,278L668,278L668,279L668,279L669,280L671,281L671,281L672,281L672,281L672,284L673,284L673,284L673,285L673,285L674,287L672,288L671,289L670,291L669,293L668,294L668,296L669,298L669,300L671,301L672,302L674,304L676,304L677,303L679,304L681,304L683,303L684,305L686,305L688,304L690,304L692,305L693,307L694,309L692,309L692,311L693,313L691,314L691,316L692,318L692,320L693,318L694,320L695,322Z " data-cd-geocodu="31" data-nm-meso="VALE DO MUCURI"/><path d="M156,475L157,473L156,471L156,468L156,466L155,464L156,462L157,460L157,458L157,456L159,455L161,455L163,454L165,454L168,454L170,455L172,454L174,453L177,452L179,452L181,452L183,452L185,451L188,450L190,450L192,451L194,450L196,450L197,452L199,452L202,451L201,449L200,447L200,445L201,443L203,444L204,445L205,448L207,449L208,451L210,452L213,452L214,450L216,449L217,448L218,445L219,443L221,445L221,447L223,449L225,450L226,448L227,446L227,444L226,442L227,440L229,439L231,439L234,439L236,439L239,439L240,441L242,442L243,443L246,442L246,440L248,439L250,438L253,437L255,436L256,438L258,440L257,442L258,444L259,445L262,445L263,447L265,448L267,449L268,450L270,452L271,454L272,455L273,456L275,456L276,457L278,457L279,459L280,460L282,459L280,458L281,456L282,454L284,453L285,453L287,453L289,453L291,452L293,451L293,451L295,452L295,451L293,450L294,448L296,449L298,449L300,449L299,447L299,445L300,444L300,442L302,440L304,440L306,440L308,441L310,441L312,442L313,441L314,439L314,437L316,437L315,436L314,434L316,432L317,431L318,429L320,429L321,427L323,428L325,428L327,428L329,427L331,428L333,427L335,428L337,427L336,425L336,423L338,422L340,422L342,421L343,422L345,422L347,422L349,421L350,419L350,417L351,416L351,414L350,412L352,412L353,410L355,411L357,411L359,410L361,409L362,407L362,407L363,405L364,403L365,402L365,400L366,398L365,396L365,394L366,393L366,391L367,389L367,387L369,386L369,384L370,382L371,380L371,378L371,376L372,374L374,373L374,371L375,369L375,367L376,365L377,363L378,362L379,360L378,358L379,356L380,354L381,353L382,351L381,349L383,348L383,346L383,345L381,344L379,344L379,342L379,340L380,338L381,337L383,335L383,333L383,331L384,330L384,327L384,325L383,324L382,322L382,322L380,323L378,323L376,323L374,322L373,321L371,322L372,324L371,326L370,327L369,329L368,331L366,329L364,329L362,328L360,328L359,326L358,327L356,328L355,326L353,327L351,326L349,325L349,325L349,325L349,325L348,325L347,325L346,325L345,325L345,325L345,325L345,325L344,326L344,326L343,326L343,326L343,326L342,327L342,327L342,327L342,328L342,328L342,328L342,328L342,328L342,328L342,328L342,328L341,328L341,328L342,326L341,326L341,326L340,325L340,325L339,324L339,325L339,325L339,325L339,326L339,326L339,326L339,326L339,326L338,327L338,327L338,327L336,327L336,327L335,329L335,329L334,329L334,329L334,329L334,330L334,330L332,330L332,330L332,330L332,330L331,329L331,329L331,329L331,327L331,327L331,327L331,327L331,326L331,326L331,326L331,326L330,326L330,326L330,326L330,326L328,325L328,325L328,325L326,325L326,325L325,325L325,325L325,325L325,325L325,325L325,324L325,324L325,323L324,323L324,323L324,323L324,323L324,323L323,323L321,322L321,322L321,322L321,322L320,322L320,322L319,321L319,321L318,321L318,321L317,320L316,319L316,319L315,319L315,319L315,319L315,319L314,318L314,318L313,318L313,318L313,318L313,318L313,318L313,317L313,317L313,317L313,317L312,317L312,317L312,317L310,317L310,317L309,316L309,316L308,315L308,315L308,315L308,315L309,315L309,315L307,314L307,314L307,314L307,314L307,314L307,314L306,314L306,314L305,313L305,313L305,313L305,313L305,313L305,313L305,314L305,314L305,314L305,314L305,314L305,314L304,313L304,313L304,312L304,312L304,312L304,312L304,313L304,313L303,312L303,312L302,312L302,312L302,310L302,310L301,311L299,310L298,311L296,310L295,309L293,309L291,308L290,306L290,304L289,302L287,304L285,304L284,302L282,304L280,303L279,302L278,300L278,298L278,296L277,294L276,293L275,291L273,291L273,289L272,287L272,286L273,284L272,282L271,284L269,286L268,287L266,288L265,289L264,291L264,292L263,294L261,294L259,295L258,297L256,298L254,299L253,300L251,302L250,303L248,304L246,306L246,303L244,304L243,306L241,307L240,309L240,311L241,312L240,314L237,314L236,316L235,317L233,316L232,318L231,320L229,321L227,319L226,321L225,323L223,324L222,325L220,324L218,326L216,327L215,325L215,323L213,324L211,322L210,321L208,322L206,322L204,321L202,319L200,318L198,317L197,316L193,315L192,317L191,319L189,318L187,318L185,318L183,318L181,318L179,319L178,317L176,318L174,317L172,316L170,316L168,316L166,317L163,318L161,318L158,318L156,318L154,320L154,318L152,317L150,316L148,315L146,315L144,317L143,319L141,320L139,320L138,322L137,323L135,323L133,321L131,322L129,324L128,325L127,327L126,329L125,331L123,332L122,334L121,336L119,336L118,338L116,340L115,342L113,341L112,339L110,338L108,336L108,334L107,332L106,330L103,331L104,333L102,335L100,335L97,335L96,337L96,339L94,338L92,339L89,341L87,341L85,343L83,342L81,341L80,340L78,341L76,342L73,341L72,340L69,340L68,342L67,344L66,345L64,346L62,346L60,345L58,346L55,347L53,347L50,348L48,350L47,352L46,354L45,357L44,358L42,359L41,362L40,364L38,366L36,367L36,369L37,371L37,373L37,376L35,378L34,380L32,381L31,383L28,383L26,383L25,384L24,386L22,386L20,388L20,390L19,392L17,393L15,395L14,397L14,400L13,402L12,404L12,406L14,408L15,410L13,411L11,410L9,409L6,409L6,411L7,413L8,415L9,417L7,418L5,418L4,420L3,422L2,424L1,426L1,428L1,430L1,432L2,434L3,436L3,439L4,441L5,443L4,445L3,447L4,449L5,451L4,453L6,454L7,452L9,451L10,450L12,448L14,448L16,446L18,445L20,444L25,442L27,442L29,441L30,439L31,437L33,436L34,434L36,433L38,432L40,431L43,431L45,432L47,433L48,435L50,436L52,437L54,437L56,437L59,437L61,436L64,437L66,437L69,437L70,438L72,440L74,440L77,440L79,440L81,441L83,441L86,441L88,440L91,439L93,439L96,440L98,440L101,440L103,438L105,438L108,437L110,438L111,440L112,441L115,443L117,443L120,443L122,443L124,441L126,441L129,442L128,444L126,444L125,446L125,449L125,452L125,454L126,456L127,459L128,461L129,463L130,465L132,466L134,467L136,466L138,465L139,463L140,461L141,459L141,457L142,455L144,454L147,455L148,457L149,459L150,462L150,464L150,468L150,470L150,472L151,474L154,475Z " data-cd-geocodu="31" data-nm-meso="TRIÂNGULO MINEIRO/ALTO PARANAÍBA"/><path d="M356,656L357,655L360,655L362,655L364,653L366,652L368,651L370,650L371,652L372,653L373,652L375,651L377,650L378,652L379,651L381,647L383,648L383,646L383,644L382,642L380,642L378,643L376,642L376,640L378,639L380,638L382,637L384,636L383,635L381,633L382,631L384,631L386,631L386,634L385,635L387,636L389,635L391,634L392,633L393,635L393,637L395,636L397,635L399,634L400,632L402,633L404,635L405,636L407,635L408,634L410,633L413,633L414,632L416,630L418,629L419,628L421,627L422,625L424,624L426,623L428,623L429,622L432,622L434,622L436,621L438,621L440,620L441,618L443,619L445,618L446,616L448,615L450,614L452,614L454,614L456,614L458,613L459,611L461,611L463,611L465,611L466,609L468,608L470,607L471,605L473,605L475,606L477,605L479,605L481,605L483,604L484,606L486,606L488,605L489,603L489,603L489,603L489,603L489,603L489,603L489,603L489,603L489,603L489,603L489,602L489,602L489,602L489,601L489,601L489,601L489,601L489,601L489,601L489,601L489,600L489,600L488,600L488,600L488,600L488,600L488,599L488,599L488,599L488,599L488,599L488,599L488,598L488,598L488,598L488,598L488,597L488,597L488,597L488,597L488,596L488,596L488,596L488,596L488,595L488,596L487,596L487,596L487,596L486,596L486,596L486,595L486,595L486,595L486,595L486,595L486,595L487,595L487,595L487,594L487,594L487,594L487,594L487,594L487,594L487,594L487,594L489,594L488,593L488,593L488,593L488,593L488,593L488,592L488,592L487,592L487,592L487,591L487,591L487,591L489,590L491,589L492,587L493,586L495,586L497,587L498,588L500,587L502,587L502,585L503,583L502,581L502,579L500,579L498,580L497,579L495,577L495,575L495,573L495,571L496,570L496,568L496,566L497,565L496,564L496,562L495,561L493,561L492,559L491,557L490,556L490,554L491,552L489,552L487,554L486,555L485,557L483,556L481,554L479,555L477,555L476,556L474,554L473,553L472,551L470,550L469,551L467,552L466,554L464,554L462,555L461,556L459,557L457,558L456,559L454,559L452,558L450,557L448,557L446,556L444,556L442,556L440,557L439,559L437,559L435,559L433,559L431,559L429,558L429,556L428,554L428,552L427,550L428,549L428,547L428,545L428,543L426,542L424,541L423,539L422,537L421,539L419,538L417,538L415,539L413,539L411,539L410,537L408,536L406,536L404,535L404,533L405,532L404,530L405,528L406,526L408,525L409,524L408,522L407,521L407,519L407,517L406,517L404,517L403,516L402,514L400,513L398,513L396,512L395,511L394,509L393,507L391,507L389,507L388,505L388,503L386,502L385,502L383,501L383,499L383,497L381,496L380,495L379,493L378,491L377,490L375,491L373,489L372,488L370,487L369,485L367,484L365,483L363,483L362,482L362,480L360,479L358,479L356,478L354,478L352,477L351,479L349,480L348,479L346,478L345,476L343,476L341,477L339,478L338,479L336,479L335,477L333,476L332,475L330,474L329,472L329,470L328,468L326,468L325,466L323,465L321,466L319,465L318,463L317,462L315,462L313,461L311,460L310,459L308,458L306,458L304,457L304,455L302,454L301,453L299,452L297,452L295,452L293,451L293,451L291,452L289,453L287,453L285,453L284,453L282,454L281,456L280,458L282,459L280,460L279,459L278,457L276,457L275,456L273,456L272,455L272,457L270,459L269,461L268,463L268,465L268,467L268,469L268,471L268,473L270,474L272,475L274,476L275,477L277,478L279,479L279,481L280,483L281,485L282,487L282,489L282,491L280,492L277,492L276,494L276,496L275,497L274,499L274,501L274,503L273,506L274,508L276,509L278,511L279,512L279,514L279,516L280,519L280,521L282,522L281,524L282,526L282,528L283,530L286,530L286,532L287,534L288,536L289,538L290,540L290,542L290,544L290,546L293,545L295,546L297,545L299,545L300,543L302,543L303,541L306,541L308,542L310,543L312,543L313,542L315,542L316,544L318,545L319,547L321,546L323,546L325,547L325,549L325,551L325,553L326,555L325,557L325,559L323,561L322,562L322,564L320,565L318,565L318,567L317,569L317,571L316,573L315,575L314,577L315,578L316,580L315,582L316,584L316,586L318,588L317,590L316,591L314,592L316,593L314,594L312,595L313,596L315,596L317,596L319,597L320,599L318,600L317,602L315,603L315,605L314,607L313,609L313,611L313,613L314,615L315,616L316,618L316,620L318,621L320,622L322,622L324,622L326,624L326,626L329,627L331,628L332,629L334,631L334,633L334,635L334,637L336,638L333,638L331,639L329,640L331,642L332,643L334,644L336,644L338,645L339,647L338,649L337,651L337,653L338,655L339,657L341,655L343,656L345,654L347,655L349,654L351,653L353,653L354,655L354,657Z " data-cd-geocodu="31" data-nm-meso="SUL/SUDOESTE DE MINAS"/><path d="M449,528L450,527L452,525L452,523L451,522L452,520L454,519L456,518L458,518L457,516L457,514L456,512L455,510L454,508L455,506L454,504L454,502L452,501L452,499L454,499L455,500L456,498L458,497L460,497L462,496L463,497L465,498L466,497L468,495L470,494L471,493L471,491L471,489L471,489L473,487L473,485L474,484L476,483L476,481L478,481L480,480L478,479L478,477L477,475L477,473L475,472L474,471L473,469L471,468L470,469L468,469L466,470L464,471L462,471L460,471L459,469L458,468L456,466L456,464L455,462L455,460L455,460L455,460L455,460L455,460L455,460L455,460L455,460L456,460L456,460L456,459L456,459L456,459L456,459L456,459L456,459L456,458L456,458L456,458L456,458L456,458L457,458L457,458L457,458L457,458L457,458L457,458L458,458L458,458L459,458L459,458L459,457L459,457L459,457L459,457L461,456L461,456L461,456L461,456L461,456L461,456L460,455L460,455L460,454L460,454L460,454L460,454L460,454L460,454L460,454L460,454L461,453L461,453L461,453L461,453L460,453L460,453L460,453L460,453L461,452L462,450L462,448L464,448L466,447L468,447L469,445L469,445L468,444L468,444L468,444L468,444L468,444L468,444L468,443L468,443L468,443L467,443L467,443L467,443L467,443L467,443L467,442L467,442L467,442L467,442L467,442L467,442L467,442L467,442L465,441L465,441L465,441L465,441L465,440L465,440L465,440L465,440L465,440L465,440L465,440L465,440L465,439L465,439L465,439L465,437L465,437L465,437L465,437L465,436L465,436L465,436L465,436L465,436L465,436L464,435L464,435L464,435L464,435L464,434L464,434L463,433L463,433L463,433L463,433L463,433L463,433L463,433L462,433L460,433L459,432L457,431L455,430L454,428L453,427L451,426L449,427L447,427L445,426L445,424L445,422L446,420L445,418L443,418L442,416L440,415L438,414L436,414L435,413L433,412L433,412L432,414L432,416L430,418L429,419L428,420L426,420L424,420L422,421L421,423L422,425L422,427L421,429L420,430L419,432L419,434L419,434L419,435L420,435L419,435L419,435L417,434L417,434L417,434L417,434L415,434L415,434L415,434L414,433L414,433L413,432L413,432L412,431L412,431L412,431L412,431L412,430L411,430L411,429L411,429L410,429L410,429L410,430L409,430L409,429L409,429L409,430L409,430L409,430L409,430L409,430L409,431L409,431L409,430L408,431L408,431L406,431L406,431L405,430L405,430L405,430L405,430L405,430L404,430L404,430L403,429L403,429L403,428L403,428L403,428L403,428L403,428L403,428L402,427L402,427L402,427L402,427L401,426L401,426L400,426L400,426L400,426L400,426L399,427L399,427L399,427L399,427L399,427L399,427L399,426L398,426L398,426L398,426L396,426L396,426L396,426L396,426L395,426L395,426L395,426L395,426L394,425L394,425L394,425L394,425L394,426L394,426L394,428L394,428L394,428L394,428L394,428L396,429L396,429L396,429L396,430L397,430L397,430L397,430L397,430L397,431L397,431L397,431L398,431L398,431L398,431L399,432L399,432L399,433L399,433L399,433L399,433L399,433L399,433L400,435L400,435L400,435L400,435L401,437L401,437L402,437L402,437L402,437L402,437L402,438L402,438L403,438L403,438L403,438L403,438L403,438L403,438L402,439L402,439L402,440L402,440L401,441L401,441L401,441L401,441L402,441L402,441L402,442L402,442L402,442L402,442L402,442L402,442L402,442L402,442L402,442L402,442L402,442L402,442L403,443L403,443L403,443L403,443L403,444L403,444L404,445L404,446L403,446L403,446L403,446L403,446L402,446L402,446L402,446L402,446L402,446L402,446L402,446L402,446L401,446L401,446L402,446L402,447L402,447L402,447L402,447L402,447L401,447L401,447L401,447L401,447L401,447L401,447L400,447L400,447L400,447L400,447L400,447L400,447L399,446L399,446L399,446L399,446L399,446L398,446L398,446L398,446L398,446L398,446L398,446L398,446L398,446L398,446L398,446L398,446L397,446L397,446L397,446L397,446L398,446L398,446L398,446L398,447L398,447L398,447L398,447L398,447L398,447L398,447L398,447L398,447L398,448L398,448L398,448L398,448L398,448L398,448L398,448L398,448L398,448L399,449L399,449L398,449L398,449L399,449L399,449L399,449L399,449L399,449L399,450L399,450L399,450L398,450L399,450L399,450L399,450L399,450L398,450L398,450L398,450L398,450L398,450L398,450L398,450L398,450L398,450L398,450L398,451L398,451L398,451L398,452L398,452L398,452L398,452L398,452L397,452L397,452L397,452L397,452L397,452L396,451L396,451L395,451L395,451L395,450L395,450L395,450L395,450L395,450L394,451L394,451L394,451L394,451L393,450L393,450L393,450L393,450L393,450L393,450L393,450L393,450L393,450L393,450L393,450L393,450L392,450L392,450L392,450L392,449L392,449L392,449L392,449L392,449L392,449L392,449L392,449L392,449L392,449L392,449L392,449L391,449L391,449L391,449L391,449L390,448L390,448L390,448L390,448L389,449L389,449L389,449L388,449L388,449L388,449L388,448L388,448L388,448L388,448L387,448L387,448L387,448L387,448L387,448L387,448L387,447L387,447L387,446L387,446L387,446L387,446L387,445L387,445L387,445L387,445L387,445L387,445L387,445L387,445L387,444L387,444L386,444L386,444L386,444L386,444L386,444L386,444L386,443L386,443L386,443L386,443L386,443L386,443L386,443L386,443L386,442L386,442L386,442L386,442L386,442L385,442L385,442L385,442L385,442L385,442L385,442L384,440L382,440L381,439L379,437L378,436L378,434L376,434L374,433L374,431L373,429L371,428L371,426L371,424L370,423L368,422L367,420L366,418L365,417L363,415L363,413L363,411L363,409L363,407L362,407L361,409L359,410L357,411L355,411L353,410L352,412L350,412L351,414L351,416L350,417L350,419L349,421L347,422L345,422L343,422L342,421L340,422L338,422L336,423L336,425L337,427L335,428L333,427L331,428L329,427L327,428L325,428L323,428L321,427L320,429L318,429L317,431L316,432L314,434L315,436L316,437L314,437L314,439L313,441L312,442L310,441L308,441L306,440L304,440L302,440L300,442L300,444L299,445L299,447L300,449L298,449L296,449L294,448L293,450L295,451L295,452L297,452L299,452L301,453L302,454L304,455L304,457L306,458L308,458L310,459L311,460L313,461L315,462L317,462L318,463L319,465L321,466L323,465L325,466L326,468L328,468L329,470L329,472L330,474L332,475L333,476L335,477L336,479L338,479L339,478L341,477L343,476L345,476L346,478L348,479L349,480L351,479L352,477L354,478L356,478L358,479L360,479L362,480L362,482L363,483L365,483L367,484L369,485L370,487L372,488L373,489L375,491L377,490L378,491L379,493L380,495L381,496L383,497L383,499L383,501L385,502L386,502L388,503L388,505L389,507L391,507L393,507L394,509L395,511L396,512L398,513L400,513L402,514L403,516L404,517L406,517L407,517L407,516L409,515L411,515L412,517L412,519L412,521L414,522L416,521L416,519L416,517L418,518L419,520L420,521L420,523L421,525L422,523L423,522L425,521L426,519L428,519L429,521L431,521L433,521L435,519L436,521L436,523L438,523L439,525L441,524L441,524L441,524L441,524L442,524L442,524L442,524L442,524L442,524L442,524L442,524L442,524L442,524L442,525L442,525L442,526L442,526L443,526L443,526L443,526L443,526L443,526L443,526L443,526L443,526L443,527L443,527L444,527L444,527L445,527L445,527L444,527L444,527L444,527L444,528L444,528L445,528L445,528L446,527L446,527L446,527L446,527L446,527L446,527L446,527L446,527L446,527L446,527L447,527L447,527L447,527L447,527L447,527L447,527L447,527L448,528L448,528L448,528L448,528L448,528L448,528L448,528L448,528L448,528L448,528L448,528L448,528Z " data-cd-geocodu="31" data-nm-meso="OESTE DE MINAS"/><path d="M447,295L448,293L449,291L450,290L452,291L453,289L455,289L456,287L456,285L457,283L459,282L461,281L461,283L462,285L461,287L461,289L463,289L465,290L465,290L467,290L467,290L467,290L467,290L467,290L467,290L468,290L468,290L469,290L469,290L469,289L469,289L469,288L469,288L469,288L470,286L471,284L471,282L472,280L473,278L475,278L477,277L478,276L478,274L478,272L478,270L479,268L480,266L479,264L479,262L479,260L481,260L483,259L485,258L486,258L488,258L490,256L491,254L491,252L492,251L492,249L492,247L492,245L493,243L494,241L495,243L496,244L498,245L499,247L501,248L502,249L504,251L505,252L506,254L507,256L507,258L507,260L507,262L507,264L508,265L509,267L510,268L511,270L512,272L513,274L514,276L516,276L517,278L517,277L519,275L521,275L522,273L523,271L524,270L525,268L526,266L527,265L528,263L528,261L529,259L528,258L528,256L530,255L530,253L531,251L531,249L533,250L535,250L534,248L536,248L538,249L539,250L540,248L542,249L544,250L545,248L547,247L549,246L548,244L550,243L550,241L550,239L552,238L553,239L555,240L556,239L557,237L557,235L555,234L556,232L558,232L559,230L561,232L562,230L564,230L565,228L566,226L566,226L566,226L566,226L566,225L566,225L566,225L566,225L567,225L567,225L567,225L567,225L567,224L567,224L567,224L567,224L568,224L568,224L568,223L568,223L569,223L569,222L569,222L569,222L569,222L569,222L570,222L570,222L570,222L571,223L571,223L572,221L572,221L572,221L572,221L572,219L573,218L573,217L574,216L574,216L574,216L574,216L574,216L574,216L574,216L574,216L575,216L575,216L575,216L575,216L576,214L576,214L576,214L576,214L576,213L577,211L577,211L577,212L577,212L578,212L578,212L578,212L578,212L579,211L579,211L579,211L581,212L581,212L581,212L581,212L581,212L581,212L581,212L581,212L581,212L581,212L581,212L582,212L582,212L584,211L584,211L585,210L585,210L585,210L585,210L586,208L587,207L588,205L589,203L590,201L589,200L591,199L590,197L591,195L593,194L595,193L596,192L596,190L598,190L599,188L601,188L603,188L604,186L606,185L608,184L610,183L611,182L613,182L614,180L613,179L613,177L612,176L611,174L610,172L610,170L611,170L612,170L612,170L613,170L613,170L614,169L614,169L614,169L614,169L614,168L614,168L615,168L615,168L615,168L615,168L615,168L616,168L617,169L617,169L617,169L617,169L617,169L617,169L617,169L617,169L617,169L618,169L618,169L620,170L620,170L622,170L622,170L623,170L623,170L623,170L623,169L624,168L624,168L625,168L625,168L625,168L625,168L625,168L625,169L627,168L627,168L628,168L628,168L630,168L630,168L630,169L631,169L631,169L631,169L631,169L631,169L633,168L633,168L634,167L634,167L635,167L635,167L636,167L636,166L636,166L636,166L636,166L636,166L637,165L637,163L639,162L641,162L643,162L645,162L646,163L648,162L650,161L651,160L651,158L651,158L650,157L650,157L650,156L649,154L650,152L651,151L652,149L653,147L655,146L657,146L658,144L659,146L661,147L663,147L665,146L666,145L666,143L666,141L664,140L665,138L665,136L667,135L669,134L669,134L670,132L671,131L672,129L673,127L674,126L676,126L678,126L680,125L680,123L682,123L684,124L686,123L687,121L688,120L690,119L692,118L692,116L693,114L693,113L692,111L692,106L691,100L690,95L689,93L685,90L683,88L681,86L670,75L666,72L662,68L658,66L655,66L653,67L652,69L650,70L648,71L646,70L644,70L642,70L640,70L638,72L637,70L636,68L634,67L633,65L631,64L629,65L627,65L625,67L623,66L621,65L620,63L618,64L615,63L613,62L612,61L610,59L608,57L607,56L605,55L603,55L602,53L600,52L598,53L597,52L595,51L593,49L591,48L590,47L588,45L586,45L584,44L583,42L581,41L580,40L578,39L576,37L575,35L572,35L570,35L568,33L566,33L564,33L562,33L560,32L558,32L556,32L554,32L552,32L550,33L547,33L546,35L543,35L542,36L539,37L538,38L536,40L536,42L534,42L532,43L532,41L530,40L529,39L527,39L525,39L522,38L521,37L519,37L518,35L516,35L514,34L512,34L510,33L508,32L507,31L507,29L506,27L507,25L507,23L508,21L509,19L510,17L511,15L511,11L513,10L512,7L511,6L509,5L507,5L505,5L503,5L501,4L499,3L497,3L495,4L493,4L492,3L490,2L488,4L486,2L484,2L483,1L482,0L481,1L479,1L477,2L475,1L473,2L471,3L469,3L467,4L465,6L464,6L462,7L460,7L457,8L456,9L454,10L452,11L450,12L449,14L447,15L447,17L445,17L443,18L441,19L439,20L437,21L437,23L436,24L436,26L434,28L432,29L430,30L428,31L427,32L425,33L422,34L421,36L420,38L419,40L417,40L415,39L413,38L411,39L409,40L408,42L406,43L405,45L403,46L401,48L400,49L398,50L397,52L395,53L393,54L391,55L390,56L388,55L386,54L384,55L383,57L381,58L380,60L378,61L377,63L376,65L375,66L373,67L371,68L371,69L370,71L370,73L370,75L372,76L374,77L376,76L378,77L379,76L381,75L381,77L379,79L378,80L377,82L375,83L373,83L372,85L370,86L369,87L367,89L367,91L369,91L371,90L372,92L374,92L376,91L378,91L380,92L382,92L382,94L383,96L383,98L382,100L383,102L383,104L383,106L383,108L384,109L385,111L383,112L383,114L381,115L380,117L378,119L377,120L376,122L375,123L373,125L373,127L372,129L370,130L369,132L369,134L368,136L368,138L367,140L366,141L364,142L362,142L360,143L360,141L358,140L358,138L356,137L354,137L353,138L351,138L351,140L350,142L350,144L349,146L348,148L348,150L347,151L345,153L343,153L341,153L339,153L337,153L337,153L337,153L337,154L338,155L338,155L338,155L338,155L338,155L338,155L336,157L336,157L336,157L335,157L335,157L335,158L335,159L334,159L335,161L337,161L339,161L340,163L342,163L344,163L346,163L348,164L350,164L352,164L354,164L356,165L358,164L360,163L361,165L361,167L362,169L361,171L360,172L360,174L359,176L358,177L357,179L356,181L354,182L354,184L354,186L356,187L358,188L359,189L361,188L363,189L364,191L365,192L365,194L366,196L367,197L369,198L371,199L373,200L374,202L376,202L378,201L380,201L382,200L384,201L384,203L385,205L387,205L389,205L390,207L390,209L390,211L389,213L388,214L389,216L390,217L392,217L394,218L395,219L395,221L393,222L392,224L392,226L392,228L390,230L391,232L391,234L390,235L389,237L387,238L387,240L389,241L391,243L392,244L393,245L395,246L397,246L399,248L400,249L400,251L400,253L398,254L396,254L395,255L396,257L397,258L398,260L398,262L397,264L396,265L397,267L397,269L396,270L395,272L395,274L395,276L394,278L396,279L398,278L400,278L402,278L403,280L405,281L406,282L408,283L410,284L412,283L414,284L414,284L415,282L417,281L418,280L420,280L421,282L423,283L424,285L426,285L426,287L427,289L429,290L431,291L433,291L435,292L437,292L438,293L440,294L442,294L443,296L445,296Z " data-cd-geocodu="31" data-nm-meso="NORTE DE MINAS"/><path d="M369,329L370,327L371,326L372,324L371,322L373,321L374,322L376,323L378,323L380,323L382,322L382,322L382,320L383,318L384,317L385,315L386,313L388,312L389,311L391,310L393,309L395,309L397,309L399,309L400,307L402,306L403,305L404,303L405,302L407,301L409,301L410,299L411,297L412,295L411,294L413,294L414,294L415,292L414,290L413,289L415,288L415,286L414,284L412,283L410,284L408,283L406,282L405,281L403,280L402,278L400,278L398,278L396,279L394,278L395,276L395,274L395,272L396,270L397,269L397,267L396,265L397,264L398,262L398,260L397,258L396,257L395,255L396,254L398,254L400,253L400,251L400,249L399,248L397,246L395,246L393,245L392,244L391,243L389,241L387,240L387,238L389,237L390,235L391,234L391,232L390,230L392,228L392,226L392,224L393,222L395,221L395,219L394,218L392,217L390,217L389,216L388,214L389,213L390,211L390,209L390,207L389,205L387,205L385,205L384,203L384,201L382,200L380,201L378,201L376,202L374,202L373,200L371,199L369,198L367,197L366,196L365,194L365,192L364,191L363,189L361,188L359,189L358,188L356,187L354,186L354,184L354,182L356,181L357,179L358,177L359,176L360,174L360,172L361,171L362,169L361,167L361,165L360,163L358,164L356,165L354,164L352,164L350,164L348,164L346,163L344,163L342,163L340,163L339,161L337,161L335,161L334,159L335,159L335,158L335,157L335,157L336,157L336,157L336,157L338,155L338,155L338,155L338,155L338,155L338,155L337,154L337,153L337,153L337,153L339,153L341,153L343,153L345,153L347,151L348,150L348,148L349,146L350,144L350,142L351,140L351,138L353,138L354,137L356,137L358,138L358,140L360,141L360,143L362,142L364,142L366,141L367,140L368,138L368,136L369,134L369,132L370,130L372,129L373,127L373,125L375,123L376,122L377,120L378,119L380,117L381,115L383,114L383,112L385,111L384,109L383,108L383,106L383,104L383,102L382,100L383,98L383,96L382,94L382,92L380,92L378,91L376,91L374,92L372,92L371,90L369,91L367,91L367,89L369,87L370,86L372,85L373,83L375,83L377,82L378,80L379,79L381,77L381,75L379,76L378,77L376,76L374,77L372,76L370,75L370,73L370,71L371,69L371,68L371,68L369,68L366,68L365,69L363,70L361,71L359,70L357,70L355,71L354,72L353,74L351,75L350,76L349,78L348,80L346,78L345,76L345,74L347,73L349,71L349,69L350,67L351,65L353,63L354,62L354,59L355,58L354,56L352,54L352,52L350,51L348,51L346,53L346,55L344,54L342,54L340,53L340,55L338,56L336,55L334,54L332,55L330,53L329,51L329,49L329,47L327,45L325,44L323,43L321,42L319,40L318,39L316,38L315,38L315,41L313,41L312,43L311,45L312,47L314,49L314,51L312,53L313,55L313,57L315,59L314,61L315,63L315,65L313,65L311,66L309,67L307,67L304,66L303,65L301,64L298,63L296,63L294,62L292,61L289,62L287,64L285,65L285,67L287,68L287,70L286,72L285,74L284,76L284,78L286,80L288,80L289,82L290,84L291,86L289,88L290,90L288,91L286,92L285,94L285,96L285,98L284,100L284,102L285,104L287,106L289,107L291,108L291,110L291,112L292,114L293,116L293,118L294,120L293,122L294,124L295,126L293,128L291,128L284,130L282,131L278,132L276,133L274,134L272,133L270,132L269,134L267,136L266,137L264,138L262,138L260,138L259,139L259,141L258,143L257,145L257,147L256,149L257,150L257,152L258,154L257,156L256,158L256,160L255,162L254,164L252,166L251,167L251,169L250,171L249,172L249,175L249,176L250,178L252,179L253,181L255,183L257,182L258,183L260,184L261,186L263,186L264,188L265,190L266,192L265,194L267,196L266,198L268,199L268,201L268,203L268,206L270,206L271,208L272,210L273,211L273,213L271,214L270,216L268,218L267,219L265,220L263,220L262,223L261,224L259,224L258,226L257,228L256,229L254,231L253,233L253,235L253,237L251,237L250,239L248,239L246,239L246,241L245,243L245,245L245,247L246,248L247,250L249,251L250,253L252,253L254,252L256,252L258,252L260,253L261,255L263,256L264,258L265,260L264,262L263,264L262,265L261,267L259,269L260,271L258,272L258,274L258,276L259,278L259,280L259,282L260,284L262,286L262,288L263,289L264,291L265,289L266,288L268,287L269,286L271,284L272,282L273,284L272,286L272,287L273,289L273,291L275,291L276,293L277,294L278,296L278,298L278,300L279,302L280,303L282,304L284,302L285,304L287,304L289,302L290,304L290,306L291,308L293,309L295,309L296,310L298,311L299,310L301,311L302,310L302,310L302,312L302,312L303,312L303,312L304,313L304,313L304,312L304,312L304,312L304,312L304,313L304,313L305,314L305,314L305,314L305,314L305,314L305,314L305,313L305,313L305,313L305,313L305,313L305,313L306,314L306,314L307,314L307,314L307,314L307,314L307,314L307,314L309,315L309,315L308,315L308,315L308,315L308,315L309,316L309,316L310,317L310,317L312,317L312,317L312,317L313,317L313,317L313,317L313,317L313,318L313,318L313,318L313,318L313,318L314,318L314,318L315,319L315,319L315,319L315,319L316,319L316,319L317,320L318,321L318,321L319,321L319,321L320,322L320,322L321,322L321,322L321,322L321,322L323,323L324,323L324,323L324,323L324,323L324,323L325,323L325,324L325,324L325,325L325,325L325,325L325,325L325,325L326,325L326,325L328,325L328,325L328,325L330,326L330,326L330,326L330,326L331,326L331,326L331,326L331,326L331,327L331,327L331,327L331,327L331,329L331,329L331,329L332,330L332,330L332,330L332,330L334,330L334,330L334,329L334,329L334,329L335,329L335,329L336,327L336,327L338,327L338,327L338,327L339,326L339,326L339,326L339,326L339,326L339,325L339,325L339,325L339,324L340,325L340,325L341,326L341,326L342,326L341,328L341,328L342,328L342,328L342,328L342,328L342,328L342,328L342,328L342,328L342,327L342,327L342,327L343,326L343,326L343,326L344,326L344,326L345,325L345,325L345,325L345,325L346,325L347,325L348,325L349,325L349,325L349,325L349,325L351,326L353,327L355,326L356,328L358,327L359,326L360,328L362,328L364,329L366,329L368,331Z " data-cd-geocodu="31" data-nm-meso="NOROESTE DE MINAS"/><path d="M507,505L507,505L507,505L507,505L507,505L507,505L507,505L507,505L507,504L507,504L507,504L507,504L508,504L508,504L508,504L508,504L508,504L508,504L508,504L508,503L508,503L508,503L508,503L508,503L508,503L508,503L508,503L509,502L509,502L509,502L509,502L509,502L509,502L509,502L509,502L510,502L510,502L510,502L510,502L511,502L511,502L511,502L511,502L511,502L511,502L511,502L511,502L511,501L511,501L512,502L512,502L512,502L512,502L512,502L512,502L512,502L512,501L512,501L512,501L512,501L513,501L513,501L513,501L513,501L513,501L514,501L514,501L514,501L514,501L514,501L514,501L514,501L514,501L515,501L515,501L515,501L515,501L516,501L516,501L516,501L516,501L515,501L515,501L516,501L516,501L516,500L516,500L516,500L516,500L517,500L517,500L517,499L517,499L517,499L517,499L517,499L517,499L518,499L518,499L518,499L518,499L518,499L518,499L518,500L518,499L518,499L518,499L519,499L519,499L519,499L519,499L519,499L519,499L520,499L520,499L520,499L520,499L520,499L520,499L520,499L520,499L521,499L521,499L521,499L521,499L521,499L521,499L521,499L521,499L523,499L523,499L523,499L523,499L524,499L524,499L524,499L524,499L524,498L524,498L524,498L525,498L525,498L525,498L525,498L525,498L525,498L526,498L526,498L526,498L526,498L526,498L526,498L526,498L526,498L526,498L526,498L526,498L526,498L526,498L527,498L527,498L527,498L527,498L527,498L527,498L528,499L528,499L528,499L528,499L528,499L528,499L530,499L530,497L532,495L532,493L534,492L536,492L537,491L539,490L540,489L540,487L541,485L540,483L540,481L541,480L542,478L543,476L545,476L547,475L548,474L550,473L552,473L553,474L555,475L557,475L559,474L561,473L563,473L564,472L566,470L568,469L567,467L565,468L563,468L562,467L561,465L561,463L561,461L562,460L560,458L559,457L560,455L561,453L561,451L560,449L560,447L562,448L564,448L566,448L568,447L570,446L572,446L573,444L574,442L574,440L575,438L577,437L579,438L580,437L582,436L584,436L586,436L588,435L590,436L591,436L593,434L595,434L597,433L598,431L597,429L599,428L601,427L603,427L603,426L604,424L606,423L607,421L607,419L609,418L609,417L609,417L609,416L608,418L606,419L605,420L603,420L601,419L599,418L597,418L595,418L593,417L591,417L591,419L589,418L587,419L586,417L585,415L586,413L584,413L582,413L582,415L580,415L578,415L577,413L575,413L574,412L574,410L573,408L571,407L571,404L571,403L569,401L568,400L568,398L568,396L568,394L568,392L570,392L571,394L572,395L573,397L574,399L576,399L578,399L578,397L579,395L580,393L580,391L582,391L584,390L586,390L588,389L588,389L588,389L588,388L588,388L588,388L588,388L589,387L589,387L589,387L589,387L589,387L589,387L589,387L589,387L590,386L590,386L591,384L591,382L590,380L590,378L590,376L588,376L587,374L586,372L588,371L586,371L584,371L583,370L581,369L579,368L577,368L576,369L574,370L572,368L571,367L570,365L568,364L566,364L565,365L565,367L563,368L561,368L559,369L557,369L555,369L553,370L552,368L551,367L551,366L551,366L552,366L553,366L553,366L553,366L554,366L555,366L554,365L554,365L554,365L554,364L554,364L554,364L554,364L554,364L554,364L554,363L554,363L555,362L555,362L554,360L554,360L554,360L554,360L555,360L555,360L555,360L555,360L555,360L555,360L556,359L556,359L556,359L556,359L557,357L557,357L557,357L558,357L558,357L559,358L559,358L559,358L559,358L559,357L559,357L560,357L560,357L560,356L560,356L559,355L559,355L559,353L559,352L559,352L558,350L558,350L558,350L558,350L557,350L557,350L557,349L557,349L557,350L557,350L557,350L557,349L557,349L557,349L557,349L557,349L557,347L557,347L557,347L557,347L557,346L557,346L557,346L557,346L557,346L556,345L557,343L557,343L557,343L557,343L557,343L556,342L556,342L556,342L556,342L555,342L555,342L555,342L555,342L555,342L554,342L555,340L556,338L558,338L557,337L556,335L556,333L557,331L556,329L557,329L557,329L558,329L558,329L558,329L558,329L559,327L559,327L559,326L559,326L559,326L559,326L559,326L559,326L559,326L560,326L560,326L560,326L561,325L561,325L561,325L561,324L561,324L561,324L561,324L560,324L560,324L560,324L560,324L560,324L560,324L559,324L559,323L560,323L560,323L560,323L560,322L560,322L560,322L560,321L560,321L560,321L560,320L562,320L564,319L564,317L564,315L565,314L567,314L569,314L571,313L573,312L575,312L576,312L579,312L580,311L581,311L581,310L581,309L581,309L581,309L581,309L581,309L581,309L581,309L581,308L581,308L581,308L581,307L581,307L581,307L581,307L581,307L581,306L581,306L581,306L581,306L581,306L581,306L580,304L580,304L580,304L580,304L580,304L579,305L579,305L578,305L578,305L578,305L578,305L577,305L577,304L577,304L577,304L577,303L577,303L576,302L576,302L575,301L575,301L576,300L576,300L576,300L576,300L576,298L576,298L576,298L577,297L578,297L578,296L578,296L578,296L578,296L579,296L579,296L579,296L579,296L579,295L579,295L580,294L580,294L580,293L581,293L581,293L580,292L580,292L580,293L580,293L579,293L579,293L579,293L579,293L578,293L578,293L578,293L578,293L578,293L578,292L578,292L578,292L578,292L578,292L578,292L577,292L577,292L576,292L576,292L575,293L575,293L574,293L574,293L574,294L574,294L574,294L574,294L573,295L573,295L573,295L573,295L572,294L572,294L572,294L571,294L571,294L570,292L570,292L569,291L569,291L569,291L569,291L569,290L569,290L569,290L569,290L568,290L568,290L567,289L566,289L566,289L566,289L566,289L566,290L564,291L564,291L564,291L562,291L562,291L562,291L562,291L561,293L560,295L559,297L558,298L556,299L554,299L555,301L555,303L554,304L552,304L552,306L551,305L550,305L549,307L547,308L545,307L544,306L542,306L540,306L539,308L538,310L536,311L536,313L535,315L533,316L532,317L530,318L529,320L528,322L529,324L530,325L531,327L533,328L534,329L535,331L536,333L535,335L536,337L534,336L533,337L531,336L529,335L527,334L525,334L523,333L521,333L519,332L518,331L516,331L514,330L513,332L512,334L510,334L508,334L507,333L505,332L503,332L501,333L500,334L501,336L501,338L503,339L502,341L503,343L502,345L503,346L503,348L502,350L501,351L500,353L499,352L497,351L495,352L494,354L494,354L494,354L494,354L494,354L494,354L493,354L493,354L493,354L493,355L492,355L492,355L491,356L491,355L491,355L491,355L490,356L490,356L490,356L490,356L490,356L488,356L488,356L488,356L488,356L487,356L487,356L485,356L485,356L484,357L484,357L482,357L482,357L482,358L482,358L481,359L481,359L481,359L481,359L481,360L481,360L481,361L481,361L480,361L478,362L478,362L478,362L478,363L477,363L477,363L477,363L477,363L477,363L477,363L477,364L477,364L476,364L476,364L476,364L476,364L475,365L475,365L475,365L474,365L473,366L473,366L473,366L473,366L473,367L473,367L472,368L472,368L472,368L472,368L472,369L472,369L471,369L471,369L471,369L471,369L471,369L471,370L469,371L469,370L468,370L468,370L468,371L468,371L468,371L468,372L468,372L467,372L467,372L465,372L465,372L465,372L463,372L463,372L463,372L463,372L463,372L463,372L463,372L463,372L462,372L462,372L462,373L462,373L462,373L462,373L461,374L461,374L460,374L460,374L460,375L460,375L460,375L460,375L460,375L459,375L459,375L459,375L459,375L459,375L457,376L457,376L457,376L457,376L456,376L456,376L456,377L456,377L456,377L455,377L455,377L455,377L455,377L455,377L455,377L455,377L455,377L454,377L454,377L454,377L452,377L452,377L451,376L451,375L450,376L450,377L449,379L448,381L448,383L447,385L447,387L445,387L444,389L443,391L442,393L440,393L439,395L437,396L435,395L433,394L431,395L430,394L429,396L429,398L430,400L430,402L429,404L430,405L430,407L431,409L431,411L433,412L435,413L436,414L438,414L440,415L442,416L443,418L445,418L446,420L445,422L445,424L445,426L447,427L449,427L451,426L453,427L454,428L455,430L457,431L459,432L460,433L462,433L463,433L463,433L463,433L463,433L463,433L463,433L463,433L464,434L464,434L464,435L464,435L464,435L464,435L465,436L465,436L465,436L465,436L465,436L465,436L465,437L465,437L465,437L465,437L465,439L465,439L465,439L465,440L465,440L465,440L465,440L465,440L465,440L465,440L465,440L465,441L465,441L465,441L465,441L467,442L467,442L467,442L467,442L467,442L467,442L467,442L467,442L467,443L467,443L467,443L467,443L467,443L468,443L468,443L468,443L468,444L468,444L468,444L468,444L468,444L468,444L469,445L469,445L468,447L466,447L464,448L462,448L462,450L461,452L460,453L460,453L460,453L460,453L461,453L461,453L461,453L461,453L460,454L460,454L460,454L460,454L460,454L460,454L460,454L460,454L460,455L460,455L461,456L461,456L461,456L461,456L461,456L461,456L459,457L459,457L459,457L459,457L459,458L459,458L458,458L458,458L457,458L457,458L457,458L457,458L457,458L457,458L456,458L456,458L456,458L456,458L456,458L456,459L456,459L456,459L456,459L456,459L456,459L456,460L456,460L455,460L455,460L455,460L455,460L455,460L455,460L455,460L455,460L455,462L456,464L456,466L458,468L459,469L460,471L462,471L464,471L466,470L468,469L470,469L471,468L473,469L474,471L475,472L477,473L477,475L478,477L478,479L480,480L478,481L476,481L476,483L474,484L473,485L473,487L471,489L471,489L472,490L473,492L475,491L476,489L477,490L479,489L481,490L483,490L483,490L483,490L483,489L483,489L484,490L484,490L484,490L484,490L484,490L484,490L484,490L484,490L484,490L484,490L484,490L484,490L485,490L485,490L485,490L486,490L486,490L486,490L486,490L486,490L486,490L486,490L486,490L486,490L486,491L486,491L488,491L488,491L488,491L488,491L488,491L488,491L488,492L488,492L488,492L488,492L488,492L488,492L488,492L488,492L488,492L488,492L489,492L489,492L490,491L490,491L491,491L491,491L491,491L491,491L491,491L491,491L491,491L491,491L491,491L491,491L491,491L491,492L491,492L491,492L491,492L491,492L491,492L491,492L491,492L491,493L491,493L491,493L491,493L491,493L491,493L491,493L491,493L492,494L492,494L493,494L493,494L494,494L494,494L494,494L494,494L494,494L494,494L494,494L494,494L495,495L495,495L496,495L496,495L496,495L496,495L496,495L496,495L496,495L496,495L496,495L496,495L497,495L497,495L497,495L497,495L497,495L497,495L497,495L497,495L498,496L498,496L498,496L498,496L498,496L498,496L498,496L498,495L498,495L499,495L499,495L499,495L499,495L499,496L499,496L499,496L499,496L500,496L500,496L500,495L500,495L501,497L502,499L503,500L504,502L505,504L507,505Z " data-cd-geocodu="31" data-nm-meso="METROPOLITANA DE BELO HORIZONTE"/><path d="M534,336L536,337L535,335L536,333L535,331L534,329L533,328L531,327L530,325L529,324L528,322L529,320L530,318L532,317L533,316L535,315L536,313L536,311L538,310L539,308L540,306L542,306L544,306L545,307L547,308L549,307L550,305L551,305L552,306L552,304L554,304L555,303L555,301L554,299L556,299L558,298L559,297L560,295L561,293L562,291L562,291L562,291L562,291L564,291L564,291L564,291L566,290L566,289L566,289L566,289L566,289L568,290L568,290L569,290L569,290L569,290L569,290L569,291L569,291L569,291L569,291L570,292L570,292L571,294L571,294L572,294L572,294L572,294L573,295L573,295L573,295L573,295L574,294L574,294L574,294L574,294L574,293L574,293L575,293L575,293L576,292L576,292L577,292L577,292L578,292L578,292L578,292L578,292L578,292L578,292L578,293L578,293L578,293L578,293L578,293L579,293L579,293L579,293L579,293L580,293L580,293L580,292L580,292L581,293L582,291L584,291L586,291L588,290L590,290L592,291L593,290L593,290L593,290L593,290L593,289L593,289L594,288L594,288L594,288L594,288L595,288L595,288L595,288L595,288L595,288L595,288L596,287L596,287L596,287L596,288L596,288L596,288L597,287L597,287L597,287L597,287L597,287L598,287L598,287L598,286L598,286L599,285L599,285L599,285L599,285L599,285L599,284L599,284L600,283L600,283L600,283L600,283L601,283L601,283L603,282L603,282L603,281L603,281L603,280L603,280L603,280L603,280L603,280L603,280L603,280L603,280L603,280L603,280L605,280L605,280L605,280L605,280L605,280L606,281L606,281L606,279L606,279L606,279L607,279L607,279L608,278L608,278L608,278L608,278L608,278L608,278L608,278L608,278L608,278L608,278L608,277L608,277L608,277L608,277L608,277L608,277L608,276L608,276L608,275L608,275L609,275L609,274L609,274L609,274L609,273L609,273L609,272L609,272L609,272L609,272L610,272L610,272L610,271L610,271L610,271L610,271L610,270L610,270L610,270L610,269L610,270L610,270L611,270L611,270L611,270L611,270L611,270L611,270L611,270L611,270L612,270L612,270L613,269L613,269L613,268L613,269L613,269L613,269L614,268L614,268L614,268L614,268L614,268L614,268L614,268L614,268L615,270L616,270L616,270L616,269L616,269L616,268L616,268L616,268L616,268L616,268L616,268L616,267L616,267L616,266L616,266L617,267L617,267L618,267L618,267L618,267L619,267L619,267L619,267L619,267L620,267L620,267L620,267L620,267L621,267L621,267L623,267L623,267L623,267L624,268L626,267L628,267L628,265L628,263L626,261L626,259L625,257L625,255L624,254L624,252L625,250L625,248L626,247L627,245L628,243L629,242L631,243L632,245L632,247L634,248L634,250L634,252L636,253L638,254L640,254L642,255L643,256L644,258L644,256L646,254L647,253L648,251L650,250L651,248L653,247L655,247L657,246L658,245L659,243L661,242L660,240L661,238L662,237L663,235L663,233L663,233L663,232L663,232L664,231L665,230L665,230L665,230L665,230L665,230L665,230L665,230L665,230L665,230L665,230L666,230L666,230L666,229L666,229L666,229L666,229L666,228L666,228L666,227L666,227L666,227L666,227L667,226L667,226L669,226L670,226L670,226L671,227L671,227L672,229L673,229L673,229L674,229L674,229L674,229L674,229L676,229L677,230L677,230L677,230L677,230L677,230L678,231L678,231L678,231L678,231L678,231L678,231L678,231L679,232L679,232L680,232L680,232L680,232L680,232L681,232L681,232L681,232L681,232L682,232L682,232L684,233L684,233L684,233L684,233L685,233L685,233L685,233L685,233L685,233L685,233L685,233L685,233L685,233L686,232L686,232L686,231L686,231L686,231L686,231L687,231L687,231L687,231L688,231L688,231L688,231L689,231L689,231L689,231L689,231L690,231L690,231L690,232L690,232L690,233L690,233L690,235L690,235L690,235L691,233L691,233L692,232L693,232L693,232L693,231L693,231L693,230L693,230L693,230L693,230L693,229L693,229L692,228L692,228L693,227L692,227L692,227L692,227L692,227L692,227L692,226L692,226L692,226L692,226L692,226L691,226L692,226L692,226L692,226L692,225L691,225L691,224L691,224L691,224L691,224L691,223L691,223L691,222L691,222L691,222L691,222L691,220L691,220L692,219L692,219L691,218L691,218L691,218L691,218L691,218L691,217L691,217L691,217L691,217L691,217L692,217L692,217L692,215L692,215L692,215L692,214L692,214L692,214L694,212L695,212L697,212L699,212L701,211L703,211L705,210L706,208L707,207L708,205L710,205L712,205L713,203L715,203L717,202L718,200L719,199L720,197L721,195L723,195L725,196L726,198L727,199L729,198L730,197L732,196L734,196L736,196L738,197L740,196L741,195L742,193L744,193L746,193L747,194L749,194L751,196L753,197L755,197L756,199L757,201L757,201L758,202L760,201L762,200L763,202L765,202L768,202L768,200L770,199L770,197L770,195L768,195L765,195L763,193L765,191L766,189L766,187L766,185L767,183L767,181L768,179L769,177L771,177L773,177L775,177L777,178L777,176L777,174L778,172L780,170L781,168L782,166L782,168L784,169L784,167L786,166L786,164L787,161L789,160L790,158L792,158L794,156L795,154L794,153L795,150L797,149L797,147L796,145L798,145L799,143L798,141L797,139L795,138L794,136L795,135L793,134L791,135L789,135L787,133L786,132L784,130L783,129L783,127L781,128L779,127L777,126L776,124L774,123L773,121L772,119L770,120L768,120L766,121L764,120L762,121L760,120L758,119L758,117L756,116L754,117L752,117L751,118L748,119L747,117L746,116L745,114L742,113L741,112L740,110L738,109L736,109L736,111L733,112L733,110L732,108L730,107L729,109L727,110L725,110L723,109L721,108L719,107L718,109L717,111L715,112L713,113L711,112L710,114L707,114L705,115L703,115L701,113L699,114L697,114L695,114L693,114L692,116L692,118L690,119L688,120L687,121L686,123L684,124L682,123L680,123L680,125L678,126L676,126L674,126L673,127L672,129L671,131L670,132L669,134L669,134L667,135L665,136L665,138L664,140L666,141L666,143L666,145L665,146L663,147L661,147L659,146L658,144L657,146L655,146L653,147L652,149L651,151L650,152L649,154L650,156L650,157L650,157L651,158L651,158L651,160L650,161L648,162L646,163L645,162L643,162L641,162L639,162L637,163L637,165L636,166L636,166L636,166L636,166L636,166L636,167L635,167L635,167L634,167L634,167L633,168L633,168L631,169L631,169L631,169L631,169L631,169L630,169L630,168L630,168L628,168L628,168L627,168L627,168L625,169L625,168L625,168L625,168L625,168L625,168L624,168L624,168L623,169L623,170L623,170L623,170L622,170L622,170L620,170L620,170L618,169L618,169L617,169L617,169L617,169L617,169L617,169L617,169L617,169L617,169L617,169L616,168L615,168L615,168L615,168L615,168L615,168L614,168L614,168L614,169L614,169L614,169L614,169L613,170L613,170L612,170L612,170L611,170L610,170L610,172L611,174L612,176L613,177L613,179L614,180L613,182L611,182L610,183L608,184L606,185L604,186L603,188L601,188L599,188L598,190L596,190L596,192L595,193L593,194L591,195L590,197L591,199L589,200L590,201L589,203L588,205L587,207L586,208L585,210L585,210L585,210L585,210L584,211L584,211L582,212L582,212L581,212L581,212L581,212L581,212L581,212L581,212L581,212L581,212L581,212L581,212L581,212L579,211L579,211L579,211L578,212L578,212L578,212L578,212L577,212L577,212L577,211L577,211L576,213L576,214L576,214L576,214L576,214L575,216L575,216L575,216L575,216L574,216L574,216L574,216L574,216L574,216L574,216L574,216L574,216L573,217L573,218L572,219L572,221L572,221L572,221L572,221L571,223L571,223L570,222L570,222L570,222L569,222L569,222L569,222L569,222L569,222L569,223L568,223L568,223L568,224L568,224L567,224L567,224L567,224L567,224L567,225L567,225L567,225L567,225L566,225L566,225L566,225L566,225L566,226L566,226L566,226L566,226L565,228L564,230L562,230L561,232L559,230L558,232L556,232L555,234L557,235L557,237L556,239L555,240L553,239L552,238L550,239L550,241L550,243L548,244L549,246L547,247L545,248L544,250L542,249L540,248L539,250L538,249L536,248L534,248L535,250L533,250L531,249L531,251L530,253L530,255L528,256L528,258L529,259L528,261L528,263L527,265L526,266L525,268L524,270L523,271L522,273L521,275L519,275L517,277L517,278L516,278L515,280L515,282L514,283L513,285L511,286L510,288L508,288L506,288L504,289L505,291L506,293L504,294L503,295L503,295L503,296L503,296L503,296L503,296L503,296L503,296L502,297L502,297L501,298L500,299L500,299L500,299L500,299L500,299L499,300L499,300L499,300L499,300L499,300L497,299L497,299L497,299L497,299L496,299L496,299L496,299L494,299L494,301L495,303L496,305L498,305L500,306L500,308L501,310L499,310L500,311L502,311L504,312L506,312L508,311L510,312L511,314L512,315L511,317L509,317L508,319L509,321L507,322L505,322L503,323L502,325L500,325L498,325L496,326L495,328L496,330L496,332L497,332L498,334L500,334L501,333L503,332L505,332L507,333L508,334L510,334L512,334L513,332L514,330L516,331L518,331L519,332L521,333L523,333L525,334L527,334L529,335L531,336L533,337Z " data-cd-geocodu="31" data-nm-meso="JEQUITINHONHA"/><path d="M398,452L398,452L398,452L398,452L398,451L398,451L398,451L398,450L398,450L398,450L398,450L398,450L398,450L398,450L398,450L398,450L398,450L399,450L399,450L399,450L399,450L398,450L399,450L399,450L399,450L399,449L399,449L399,449L399,449L399,449L398,449L398,449L399,449L399,449L398,448L398,448L398,448L398,448L398,448L398,448L398,448L398,448L398,448L398,447L398,447L398,447L398,447L398,447L398,447L398,447L398,447L398,447L398,446L398,446L398,446L397,446L397,446L397,446L397,446L398,446L398,446L398,446L398,446L398,446L398,446L398,446L398,446L398,446L398,446L398,446L399,446L399,446L399,446L399,446L399,446L400,447L400,447L400,447L400,447L400,447L400,447L401,447L401,447L401,447L401,447L401,447L401,447L402,447L402,447L402,447L402,447L402,447L402,446L401,446L401,446L402,446L402,446L402,446L402,446L402,446L402,446L402,446L402,446L403,446L403,446L403,446L403,446L404,446L404,445L403,444L403,444L403,443L403,443L403,443L403,443L402,442L402,442L402,442L402,442L402,442L402,442L402,442L402,442L402,442L402,442L402,442L402,442L402,441L402,441L401,441L401,441L401,441L401,441L402,440L402,440L402,439L402,439L403,438L403,438L403,438L403,438L403,438L403,438L402,438L402,438L402,437L402,437L402,437L402,437L401,437L401,437L400,435L400,435L400,435L400,435L399,433L399,433L399,433L399,433L399,433L399,433L399,432L399,432L398,431L398,431L398,431L397,431L397,431L397,431L397,430L397,430L397,430L397,430L396,430L396,429L396,429L396,429L394,428L394,428L394,428L394,428L394,428L394,426L394,426L394,425L394,425L394,425L394,425L395,426L395,426L395,426L395,426L396,426L396,426L396,426L396,426L398,426L398,426L398,426L399,426L399,427L399,427L399,427L399,427L399,427L399,427L400,426L400,426L400,426L400,426L401,426L401,426L402,427L402,427L402,427L402,427L403,428L403,428L403,428L403,428L403,428L403,428L403,429L403,429L404,430L404,430L405,430L405,430L405,430L405,430L405,430L406,431L406,431L408,431L408,431L409,430L409,431L409,431L409,430L409,430L409,430L409,430L409,430L409,429L409,429L409,430L410,430L410,429L410,429L411,429L411,429L411,430L412,430L412,431L412,431L412,431L412,431L413,432L413,432L414,433L414,433L415,434L415,434L415,434L417,434L417,434L417,434L417,434L419,435L419,435L420,435L419,435L419,434L419,434L419,432L420,430L421,429L422,427L422,425L421,423L422,421L424,420L426,420L428,420L429,419L430,418L432,416L432,414L433,412L433,412L431,411L431,409L430,407L430,405L429,404L430,402L430,400L429,398L429,396L430,394L431,395L433,394L435,395L437,396L439,395L440,393L442,393L443,391L444,389L445,387L447,387L447,385L448,383L448,381L449,379L450,377L450,376L451,375L451,376L452,377L452,377L454,377L454,377L454,377L455,377L455,377L455,377L455,377L455,377L455,377L455,377L455,377L456,377L456,377L456,377L456,376L456,376L457,376L457,376L457,376L457,376L459,375L459,375L459,375L459,375L459,375L460,375L460,375L460,375L460,375L460,375L460,374L460,374L461,374L461,374L462,373L462,373L462,373L462,373L462,372L462,372L463,372L463,372L463,372L463,372L463,372L463,372L463,372L463,372L465,372L465,372L465,372L467,372L467,372L468,372L468,372L468,371L468,371L468,371L468,370L468,370L469,370L469,371L471,370L471,369L471,369L471,369L471,369L471,369L472,369L472,369L472,368L472,368L472,368L472,368L473,367L473,367L473,366L473,366L473,366L473,366L474,365L475,365L475,365L475,365L476,364L476,364L476,364L476,364L477,364L477,364L477,363L477,363L477,363L477,363L477,363L477,363L478,363L478,362L478,362L478,362L480,361L481,361L481,361L481,360L481,360L481,359L481,359L481,359L481,359L482,358L482,358L482,357L482,357L484,357L484,357L485,356L485,356L487,356L487,356L488,356L488,356L488,356L488,356L490,356L490,356L490,356L490,356L490,356L491,355L491,355L491,355L491,356L492,355L492,355L493,355L493,354L493,354L493,354L494,354L494,354L494,354L494,354L494,354L494,354L495,352L497,351L499,352L500,353L501,351L502,350L503,348L503,346L502,345L503,343L502,341L503,339L501,338L501,336L500,334L498,334L497,332L496,332L496,330L495,328L496,326L498,325L500,325L502,325L503,323L505,322L507,322L509,321L508,319L509,317L511,317L512,315L511,314L510,312L508,311L506,312L504,312L502,311L500,311L499,310L501,310L500,308L500,306L498,305L496,305L495,303L494,301L494,299L496,299L496,299L496,299L497,299L497,299L497,299L497,299L499,300L499,300L499,300L499,300L499,300L500,299L500,299L500,299L500,299L500,299L501,298L502,297L502,297L503,296L503,296L503,296L503,296L503,296L503,296L503,295L503,295L504,294L506,293L505,291L504,289L506,288L508,288L510,288L511,286L513,285L514,283L515,282L515,280L516,278L517,278L516,276L514,276L513,274L512,272L511,270L510,268L509,267L508,265L507,264L507,262L507,260L507,258L507,256L506,254L505,252L504,251L502,249L501,248L499,247L498,245L496,244L495,243L494,241L493,243L492,245L492,247L492,249L492,251L491,252L491,254L490,256L488,258L486,258L485,258L483,259L481,260L479,260L479,262L479,264L480,266L479,268L478,270L478,272L478,274L478,276L477,277L475,278L473,278L472,280L471,282L471,284L470,286L469,288L469,288L469,288L469,289L469,289L469,290L469,290L468,290L468,290L467,290L467,290L467,290L467,290L467,290L467,290L465,290L465,290L463,289L461,289L461,287L462,285L461,283L461,281L459,282L457,283L456,285L456,287L455,289L453,289L452,291L450,290L449,291L448,293L447,295L445,296L443,296L442,294L440,294L438,293L437,292L435,292L433,291L431,291L429,290L427,289L426,287L426,285L424,285L423,283L421,282L420,280L418,280L417,281L415,282L414,284L414,284L415,286L415,288L413,289L414,290L415,292L414,294L413,294L411,294L412,295L411,297L410,299L409,301L407,301L405,302L404,303L403,305L402,306L400,307L399,309L397,309L395,309L393,309L391,310L389,311L388,312L386,313L385,315L384,317L383,318L382,320L382,322L383,324L384,325L384,327L384,330L383,331L383,333L383,335L381,337L380,338L379,340L379,342L379,344L381,344L383,345L383,346L383,348L381,349L382,351L381,353L380,354L379,356L378,358L379,360L378,362L377,363L376,365L375,367L375,369L374,371L374,373L372,374L371,376L371,378L371,380L370,382L369,384L369,386L367,387L367,389L366,391L366,393L365,394L365,396L366,398L365,400L365,402L364,403L363,405L362,407L362,407L363,407L363,409L363,411L363,413L363,415L365,417L366,418L367,420L368,422L370,423L371,424L371,426L371,428L373,429L374,431L374,433L376,434L378,434L378,436L379,437L381,439L382,440L384,440L385,442L385,442L385,442L385,442L385,442L385,442L386,442L386,442L386,442L386,442L386,442L386,443L386,443L386,443L386,443L386,443L386,443L386,443L386,443L386,444L386,444L386,444L386,444L386,444L386,444L387,444L387,444L387,445L387,445L387,445L387,445L387,445L387,445L387,445L387,445L387,446L387,446L387,446L387,446L387,447L387,447L387,448L387,448L387,448L387,448L387,448L387,448L388,448L388,448L388,448L388,448L388,449L388,449L388,449L389,449L389,449L389,449L390,448L390,448L390,448L390,448L391,449L391,449L391,449L391,449L392,449L392,449L392,449L392,449L392,449L392,449L392,449L392,449L392,449L392,449L392,449L392,449L392,450L392,450L392,450L393,450L393,450L393,450L393,450L393,450L393,450L393,450L393,450L393,450L393,450L393,450L393,450L394,451L394,451L394,451L394,451L395,450L395,450L395,450L395,450L395,450L395,451L395,451L396,451L396,451L397,452L397,452L397,452L397,452L397,452L398,452Z " data-cd-geocodu="31" data-nm-meso="CENTRAL MINEIRA"/><path d="M498,564L500,564L502,563L501,561L503,561L504,560L504,558L502,557L501,556L499,555L497,554L496,552L495,550L497,550L499,550L501,551L503,551L504,550L506,549L508,549L510,548L512,548L514,549L516,550L518,550L520,550L521,552L522,554L523,554L523,554L523,554L523,554L523,554L524,554L523,554L524,554L524,554L524,553L524,553L524,553L524,553L524,552L524,552L524,552L524,552L524,550L524,550L524,550L523,550L523,550L523,550L524,550L524,550L524,550L525,549L525,549L525,548L525,548L525,548L526,548L526,548L526,548L526,547L526,547L526,547L526,547L526,547L526,547L526,547L526,547L526,547L526,547L525,547L526,546L526,546L526,546L526,546L526,546L526,546L525,546L525,546L525,546L525,546L525,546L525,546L525,545L525,545L525,545L525,545L525,545L525,545L525,545L525,545L525,544L525,544L525,544L525,544L525,544L525,544L524,543L524,543L524,543L524,543L524,543L524,543L524,543L524,543L524,542L524,542L523,542L523,542L523,542L523,542L522,542L522,542L522,541L522,541L522,541L522,541L523,540L523,540L523,539L523,539L524,539L524,539L524,539L524,539L524,539L524,539L524,539L524,539L524,539L524,540L524,540L524,540L524,540L524,540L525,539L525,539L525,539L525,539L526,539L526,539L526,539L526,539L526,539L526,539L527,539L527,539L528,537L529,535L531,534L533,533L535,534L536,533L538,532L539,530L541,528L541,526L540,525L541,523L542,521L542,521L541,521L541,521L540,521L540,521L539,521L539,521L539,521L539,521L539,521L539,521L539,520L539,520L538,519L538,519L538,519L538,519L538,519L538,519L538,519L537,519L537,519L537,519L537,519L537,519L537,519L537,518L537,518L536,518L536,518L536,518L536,517L536,517L536,517L536,517L536,517L536,517L536,517L536,517L536,517L536,517L536,517L536,517L536,517L535,517L535,517L536,516L536,516L536,516L536,516L536,515L536,515L536,515L536,515L536,515L536,515L535,515L535,515L535,515L535,514L535,514L535,515L535,515L534,515L534,515L534,515L534,515L534,515L534,515L534,515L534,515L534,514L534,514L534,514L535,514L535,514L535,514L535,514L535,514L535,514L535,513L535,513L535,513L535,513L535,513L535,513L535,512L535,512L535,512L535,512L535,511L535,511L534,511L534,511L534,511L534,511L534,511L534,511L534,511L534,511L534,511L534,511L534,511L534,510L534,510L534,510L534,510L534,510L534,510L534,510L534,510L534,510L534,510L534,510L534,510L534,510L534,510L534,510L534,510L533,509L533,509L532,509L532,509L532,508L532,508L532,508L532,508L532,508L532,508L532,508L532,508L532,508L532,508L532,507L532,507L532,507L532,507L532,507L532,507L532,507L531,507L531,506L531,506L531,506L531,506L531,506L531,506L532,506L532,506L532,506L532,506L532,506L532,506L533,506L533,506L533,506L533,506L534,506L534,506L534,505L534,505L534,505L534,505L533,504L532,502L531,501L529,500L528,499L528,499L528,499L528,499L528,499L528,499L527,498L527,498L527,498L527,498L527,498L527,498L526,498L526,498L526,498L526,498L526,498L526,498L526,498L526,498L526,498L526,498L526,498L526,498L526,498L525,498L525,498L525,498L525,498L525,498L525,498L524,498L524,498L524,498L524,499L524,499L524,499L524,499L523,499L523,499L523,499L523,499L521,499L521,499L521,499L521,499L521,499L521,499L521,499L521,499L520,499L520,499L520,499L520,499L520,499L520,499L520,499L520,499L519,499L519,499L519,499L519,499L519,499L519,499L518,499L518,499L518,499L518,500L518,499L518,499L518,499L518,499L518,499L518,499L517,499L517,499L517,499L517,499L517,499L517,499L517,500L517,500L516,500L516,500L516,500L516,500L516,501L516,501L515,501L515,501L516,501L516,501L516,501L516,501L515,501L515,501L515,501L515,501L514,501L514,501L514,501L514,501L514,501L514,501L514,501L514,501L513,501L513,501L513,501L513,501L513,501L512,501L512,501L512,501L512,501L512,502L512,502L512,502L512,502L512,502L512,502L512,502L511,501L511,501L511,502L511,502L511,502L511,502L511,502L511,502L511,502L511,502L510,502L510,502L510,502L510,502L509,502L509,502L509,502L509,502L509,502L509,502L509,502L509,502L508,503L508,503L508,503L508,503L508,503L508,503L508,503L508,503L508,504L508,504L508,504L508,504L508,504L508,504L508,504L507,504L507,504L507,504L507,504L507,505L507,505L507,505L507,505L507,505L507,505L507,505L507,505L507,505L505,504L504,502L503,500L502,499L501,497L500,495L500,495L500,496L500,496L499,496L499,496L499,496L499,496L499,495L499,495L499,495L499,495L498,495L498,495L498,496L498,496L498,496L498,496L498,496L498,496L498,496L497,495L497,495L497,495L497,495L497,495L497,495L497,495L497,495L496,495L496,495L496,495L496,495L496,495L496,495L496,495L496,495L496,495L496,495L495,495L495,495L494,494L494,494L494,494L494,494L494,494L494,494L494,494L494,494L493,494L493,494L492,494L492,494L491,493L491,493L491,493L491,493L491,493L491,493L491,493L491,493L491,492L491,492L491,492L491,492L491,492L491,492L491,492L491,492L491,491L491,491L491,491L491,491L491,491L491,491L491,491L491,491L491,491L491,491L491,491L490,491L490,491L489,492L489,492L488,492L488,492L488,492L488,492L488,492L488,492L488,492L488,492L488,492L488,492L488,491L488,491L488,491L488,491L488,491L488,491L486,491L486,491L486,490L486,490L486,490L486,490L486,490L486,490L486,490L486,490L486,490L485,490L485,490L485,490L484,490L484,490L484,490L484,490L484,490L484,490L484,490L484,490L484,490L484,490L484,490L484,490L483,489L483,489L483,490L483,490L483,490L481,490L479,489L477,490L476,489L475,491L473,492L472,490L471,489L471,491L471,493L470,494L468,495L466,497L465,498L463,497L462,496L460,497L458,497L456,498L455,500L454,499L452,499L452,501L454,502L454,504L455,506L454,508L455,510L456,512L457,514L457,516L458,518L456,518L454,519L452,520L451,522L452,523L452,525L450,527L449,528L448,528L448,528L448,528L448,528L448,528L448,528L448,528L448,528L448,528L448,528L448,528L448,528L447,527L447,527L447,527L447,527L447,527L447,527L447,527L446,527L446,527L446,527L446,527L446,527L446,527L446,527L446,527L446,527L446,527L445,528L445,528L444,528L444,528L444,527L444,527L444,527L445,527L445,527L444,527L444,527L443,527L443,527L443,526L443,526L443,526L443,526L443,526L443,526L443,526L443,526L442,526L442,526L442,525L442,525L442,524L442,524L442,524L442,524L442,524L442,524L442,524L442,524L442,524L441,524L441,524L441,524L441,524L439,525L438,523L436,523L436,521L435,519L433,521L431,521L429,521L428,519L426,519L425,521L423,522L422,523L421,525L420,523L420,521L419,520L418,518L416,517L416,519L416,521L414,522L412,521L412,519L412,517L411,515L409,515L407,516L407,517L407,519L407,521L408,522L409,524L408,525L406,526L405,528L404,530L405,532L404,533L404,535L406,536L408,536L410,537L411,539L413,539L415,539L417,538L419,538L421,539L422,537L423,539L424,541L426,542L428,543L428,545L428,547L428,549L427,550L428,552L428,554L429,556L429,558L431,559L433,559L435,559L437,559L439,559L440,557L442,556L444,556L446,556L448,557L450,557L452,558L454,559L456,559L457,558L459,557L461,556L462,555L464,554L466,554L467,552L469,551L470,550L472,551L473,553L474,554L476,556L477,555L479,555L481,554L483,556L485,557L486,555L487,554L489,552L491,552L490,554L490,556L491,557L492,559L493,561L495,561L496,562L496,564L497,565Z " data-cd-geocodu="31" data-nm-meso="CAMPO DAS VERTENTES"/></g></svg>